<?xml version="1.0" encoding="UTF-8" standalone="no"?>
<svg width="48px" height="25px" viewBox="0 0 48 25" version="1.1" xmlns="http://www.w3.org/2000/svg" xmlns:xlink="http://www.w3.org/1999/xlink" xmlns:sketch="http://www.bohemiancoding.com/sketch/ns">
    <!-- Generator: Sketch 3.4 (15575) - http://www.bohemiancoding.com/sketch -->
    <title>amex</title>
    <desc>Created with Sketch.</desc>
    <defs>
        <rect id="path-1" x="0" y="0" width="48" height="25" rx="1"></rect>
    </defs>
    <g id="Page-1" stroke="none" stroke-width="1" fill="none" fill-rule="evenodd" sketch:type="MSPage">
        <g id="amex" sketch:type="MSArtboardGroup">
            <g sketch:type="MSLayerGroup">
                <rect id="box" stroke-opacity="0" stroke="#000000" fill-opacity="0" fill="#ECECEC" sketch:type="MSShapeGroup" x="0" y="0" width="48" height="25"></rect>
                <g id="brand">
                    <mask id="mask-2" sketch:name="mask" fill="white">
                        <use xlink:href="#path-1"></use>
                    </mask>
                    <use id="mask" sketch:type="MSShapeGroup" xlink:href="#path-1"></use>
                    <g id="mark" mask="url(#mask-2)" fill="#008BB6" sketch:type="MSShapeGroup">
                        <g transform="translate(-1.000000, 5.500000)">
                            <path d="M31.4967068,12.5112817 L31.4967068,11.4031504 C31.4967068,11.4031504 31.4357546,10.5359173 30.4993072,10.5359173 L29.0442119,10.5359173 L29.0442119,12.5112817 L27.5470041,12.5112817 L27.5470041,6.81645076 L31.1775389,6.81645076 C31.1775389,6.81645076 33.0725982,6.59482452 33.0725982,8.48346556 C33.0725982,9.46632979 32.2347825,9.81322304 32.2347825,9.81322304 C32.2347825,9.81322304 32.9529103,10.1408444 32.9529103,11.1033662 L32.9529103,12.510211 L31.4967068,12.510211 M29.0431037,9.19652391 L30.5901814,9.19652391 C31.037903,9.19652391 31.4069408,8.95562583 31.4069408,8.65691219 C31.4069408,8.35819855 31.037903,8.11730046 30.5901814,8.11730046 L29.0431037,8.11730046 L29.0431037,9.19652391" id="SVGID_17_"></path>
                            <path d="M21.5227101,12.5192709 L20.2161166,12.5192709 L18.6302511,10.8329842 L17.0344117,12.5192709 L16.126778,12.5192709 L11.4689215,12.5192709 L11.4689215,6.81480404 L16.126778,6.81480404 L16.9147237,6.81480404 L18.6302511,8.6263577 L20.3557525,6.82443996 L21.5027622,6.82443996 L21.5027622,6.81480404 L25.1332969,6.81480404 C25.1332969,6.81480404 27.0283563,6.61244964 27.0283563,8.4903841 C27.0283563,10.1670348 26.3999945,10.6884454 24.4650392,10.6884454 L22.9988617,10.6884454 L22.9988617,12.5192709 L21.5227101,12.5192709 M19.6475988,9.71628774 L21.5027622,11.701288 L21.5027622,7.74092338 L19.6475988,9.71628774 M12.974995,11.2869433 L16.126778,11.2869433 L17.6029295,9.71628774 L16.126778,8.15419743 L12.974995,8.15419743 L12.974995,9.02999584 L16.046986,9.02999584 L16.046986,10.3222803 L12.974995,10.3222803 L12.974995,11.2869433 M22.9988617,9.20451312 L24.5448311,9.20451312 C24.993661,9.20451312 25.3626989,8.96361502 25.3626989,8.6649014 C25.3626989,8.36725841 24.993661,8.12528967 24.5448311,8.12528967 L22.9988617,8.12528967 L22.9988617,9.20451312" id="SVGID_20_"></path>
                            <path d="M41.7001053,12.4947479 L39.0370483,12.4947479 L39.0370483,11.1831916 L41.3709635,11.1831916 C41.3709635,11.1831916 42.2087792,11.2795509 42.2087792,10.7313739 C42.2087792,10.2185286 40.9420816,10.2592136 40.9420816,10.2592136 C40.9420816,10.2592136 38.8774643,10.4326602 38.8774643,8.56329103 C38.8774643,6.70355776 40.7426017,6.80955292 40.7426017,6.80955292 L43.616221,6.80955292 L43.616221,8.13931039 L41.3022537,8.13931039 C41.3022537,8.13931039 40.5032258,7.98406495 40.5032258,8.54508985 C40.5032258,9.01510879 41.5892831,8.94872798 41.5892831,8.94872798 C41.5892831,8.94872798 43.8744366,8.78598793 43.8744366,10.5001117 C43.8744366,12.3395025 42.402718,12.5022425 41.8807455,12.5022425 C41.7688151,12.5011719 41.7001053,12.4947479 41.7001053,12.4947479" id="SVGID_23_"></path>
                            <path d="M33.690986,12.4936381 L33.690986,6.80844309 L38.3577083,6.80844309 L38.3577083,8.12856464 L35.1970595,8.12856464 L35.1970595,9.0054337 L38.2790245,9.0054337 L38.2790245,10.2977181 L35.1970595,10.2977181 L35.1970595,11.2613105 L38.3577083,11.2613105 L38.3577083,12.4936381 L33.690986,12.4936381" id="SVGID_26_"></path>
                            <path d="M46.9763496,12.4947479 L44.3132925,12.4947479 L44.3132925,11.1831916 L46.638342,11.1831916 C46.638342,11.1831916 47.4861316,11.2795509 47.4861316,10.7313739 C47.4861316,10.2185286 46.219434,10.2592136 46.219434,10.2592136 C46.219434,10.2592136 44.1548168,10.4326602 44.1548168,8.56329103 C44.1548168,6.70355776 46.0199541,6.80955292 46.0199541,6.80955292 L48.8835994,6.80955292 L48.8835994,8.13931039 L46.578498,8.13931039 C46.578498,8.13931039 45.7805782,7.98406495 45.7805782,8.54508985 C45.7805782,9.01510879 46.8677438,8.94872798 46.8677438,8.94872798 C46.8677438,8.94872798 49.1517891,8.78598793 49.1517891,10.5001117 C49.1517891,12.3395025 47.6800705,12.5022425 47.158098,12.5022425 C47.0439512,12.5011719 46.9763496,12.4947479 46.9763496,12.4947479" id="SVGID_29_"></path>
                            <path d="M26.1006421,6.40037627 L26.1006421,5.29224505 C26.1006421,5.29224505 26.0396899,4.42501191 25.1032425,4.42501191 L23.6470388,4.42501191 L23.6470388,6.40037627 L22.1509393,6.40037627 L22.1509393,0.706616015 L25.7814741,0.706616015 C25.7814741,0.706616015 27.6765335,0.48498977 27.6765335,2.37363081 C27.6765335,3.35649504 26.8387178,3.70338829 26.8387178,3.70338829 C26.8387178,3.70338829 27.5657114,4.03208036 27.5657114,4.99567272 L27.5657114,6.40144693 L26.1006421,6.40144693 M23.6470388,3.08561851 L25.1930083,3.08561851 C25.6418383,3.08561851 26.0108761,2.84472042 26.0108761,2.54600678 C26.0108761,2.24729315 25.6418383,2.00639506 25.1930083,2.00639506 L23.6470388,2.00639506 L23.6470388,3.08561851" id="SVGID_2_"></path>
                            <path d="M43.7546162,6.40037627 L41.3808049,2.59418641 L41.3808049,6.40037627 L40.0941594,6.40037627 L39.8536752,6.40037627 L38.4484499,6.40037627 L37.9187199,5.20552172 L35.1858447,5.20552172 L34.6660887,6.40037627 L33.2896772,6.40037627 L33.0403273,6.40037627 L32.3221995,6.40037627 C32.3221995,6.40037627 30.3085604,6.12093447 30.3085604,3.71195356 C30.3085604,0.551370578 32.5937139,0.676637586 32.6723976,0.657365738 L34.517587,0.705545357 L34.517587,1.98712321 L33.0026478,2.00639506 C33.0026478,2.00639506 32.0141139,2.00639506 31.8944259,3.25049988 C31.8800191,3.39289741 31.8733697,3.52458837 31.8744779,3.64664341 C31.8800191,5.57168682 33.6044122,4.97425956 33.6598233,4.95605837 L35.5149867,0.706616015 L37.609526,0.706616015 L39.852567,5.87147113 L39.852567,0.706616015 L41.9670543,0.706616015 L44.3109435,4.45499034 L44.3109435,0.706616015 L45.817017,0.706616015 L45.817017,6.40037627 L43.7546162,6.40037627 M35.8252888,3.75049725 L37.2803841,3.75049725 L36.5633646,2.05457467 L35.8252888,3.75049725" id="SVGID_5_"></path>
                            <path d="M14.1529023,6.42745814 L14.1529023,2.49707192 L12.2777909,6.42745814 L11.0509893,6.42745814 L9.16590399,2.51527311 L9.16590399,6.42745814 L7.85931043,6.42745814 L7.65983049,6.42745814 L6.21360097,6.42745814 L5.69495315,5.2326036 L2.96207807,5.2326036 L2.43345624,6.42745814 L0.797720798,6.42745814 L3.28124597,0.733697886 L5.38575926,0.733697886 L7.65983049,5.96600446 L7.65983049,0.733697886 L10.0236677,0.733697886 L11.6693771,4.27008188 L13.3051126,0.733697886 L15.6689497,0.733697886 L15.6689497,6.42745814 L14.1529023,6.42745814 M3.60041385,3.77757911 L5.05661736,3.77757911 L4.32851561,2.08165655 L3.60041385,3.77757911" id="SVGID_8_"></path>
                            <path d="M16.7051372,6.40037627 L16.7051372,0.706616015 L21.3729677,0.706616015 L21.3729677,2.03530283 L18.2112107,2.03530283 L18.2112107,2.91217188 L21.2931757,2.91217188 L21.2931757,4.20338566 L18.2112107,4.20338566 L18.2112107,5.16804869 L21.3729677,5.16804869 L21.3729677,6.40037627 L16.7051372,6.40037627" id="SVGID_11_"></path>
                            <path d="M28.2949213,6.41964811 L28.2949213,0.706616015 L29.8009948,0.706616015 L29.8009948,6.41964811 L28.2949213,6.41964811" id="SVGID_14_"></path>
                        </g>
                    </g>
                </g>
            </g>
        </g>
    </g>
</svg>