<?xml version="1.0" encoding="UTF-8" standalone="no"?>
<svg width="45px" height="25px" viewBox="0 0 45 25" version="1.1" xmlns="http://www.w3.org/2000/svg" xmlns:xlink="http://www.w3.org/1999/xlink" xmlns:sketch="http://www.bohemiancoding.com/sketch/ns">
    <!-- Generator: Sketch 3.4 (15575) - http://www.bohemiancoding.com/sketch -->
    <title>discover</title>
    <desc>Created with Sketch.</desc>
    <defs>
        <rect id="path-1" x="0" y="0" width="45" height="25" rx="1"></rect>
    </defs>
    <g id="Page-1" stroke="none" stroke-width="1" fill="none" fill-rule="evenodd" sketch:type="MSPage">
        <g id="discover" sketch:type="MSArtboardGroup">
            <g sketch:type="MSLayerGroup">
                <rect id="box" stroke-opacity="0" stroke="#000000" fill-opacity="0" fill="#ECECEC" sketch:type="MSShapeGroup" x="0" y="0" width="45" height="25"></rect>
                <g id="brand">
                    <mask id="mask-2" sketch:name="mask" fill="white">
                        <use xlink:href="#path-1"></use>
                    </mask>
                    <use id="mask" sketch:type="MSShapeGroup" xlink:href="#path-1"></use>
                    <g id="mark" mask="url(#mask-2)" sketch:type="MSShapeGroup">
                        <g transform="translate(0.500000, 8.000000)">
                            <path d="M2.33598033,0.964285714 L0.321428571,0.964285714 L0.321428571,8.03571429 L2.32536883,8.03571429 C3.38855913,8.03571429 4.15762052,7.78213144 4.83213077,7.21992241 C5.63248247,6.55173437 6.10714286,5.54452305 6.10714286,4.50349155 C6.10714286,2.41567777 4.55745627,0.964285714 2.33598033,0.964285714 L2.33598033,0.964285714 L2.33598033,0.964285714 L2.33598033,0.964285714 L2.33598033,0.964285714 Z M4.01119258,6.20800275 C3.54736817,6.58650496 2.95039818,6.75 2.00148102,6.75 L1.60714286,6.75 L1.60714286,2.25 L2.00148102,2.25 C2.95039818,2.25 3.5246431,2.40321896 4.01119258,2.80069239 C4.51886472,3.20883714 4.82142857,3.84081594 4.82142857,4.49347864 C4.82142857,5.14745879 4.51886472,5.80157069 4.01119258,6.20800275 L4.01119258,6.20800275 L4.01119258,6.20800275 Z" id="Fill-236" fill="#0B1015"></path>
                            <path d="M6.75,0.964285714 L8.03571429,0.964285714 L8.03571429,8.03571429 L6.75,8.03571429 L6.75,8.03571429 L6.75,0.964285714 L6.75,0.964285714 L6.75,0.964285714 Z" id="Fill-237" fill="#0B1015"></path>
                            <path d="M11.3048741,3.68375225 C10.5423097,3.38895591 10.3179148,3.19452978 10.3179148,2.82909284 C10.3179148,2.40090807 10.7174133,2.07519825 11.2650377,2.07519825 C11.6457526,2.07519825 11.9581406,2.23805316 12.291077,2.62401141 L12.9540505,1.71883803 C12.4074346,1.21856564 11.7534117,0.964285714 11.0400125,0.964285714 C9.88916926,0.964285714 9.00986905,1.79987084 9.00986905,2.90933636 C9.00986905,3.84726489 9.41957883,4.32570052 10.6110148,4.77506431 C11.1092219,4.95751969 11.3624856,5.07920046 11.4896847,5.16220647 C11.7434526,5.33545358 11.8709039,5.57907822 11.8709039,5.86427163 C11.8709039,6.41505799 11.4507308,6.82206372 10.8836925,6.82206372 C10.2784566,6.82206372 9.79083891,6.50661454 9.49773884,5.91583797 L8.67857143,6.74195172 C9.26313273,7.636996 9.96619469,8.03571429 10.9337401,8.03571429 C12.2516188,8.03571429 13.1785714,7.11751778 13.1785714,5.80389166 C13.1785714,4.72389261 12.750078,4.2345386 11.3048741,3.68375225" id="Fill-238" fill="#0B1015"></path>
                            <path d="M13.8214286,4.50334084 C13.8214286,6.49395289 15.3593227,8.03571429 17.3365415,8.03571429 C17.8954944,8.03571429 18.3746523,7.92356712 18.9642857,7.64044795 L18.9642857,6.08741943 C18.4443925,6.61540197 17.9850867,6.82803613 17.39584,6.82803613 C16.0883077,6.82803613 15.1592547,5.8639112 15.1592547,4.49364587 C15.1592547,3.19556871 16.1173124,2.17065374 17.3365415,2.17065374 C17.9545351,2.17065374 18.4245403,2.39376894 18.9642857,2.93144644 L18.9642857,1.37841792 C18.3952778,1.08507973 17.9252726,0.964285714 17.3661907,0.964285714 C15.3990269,0.964285714 13.8214286,2.53722821 13.8214286,4.50334084" id="Fill-239" fill="#0B1015"></path>
                            <path d="M29.8875486,5.59606141 L28.102568,0.964285714 L26.6785714,0.964285714 L29.5173716,8.03571429 L30.2187527,8.03571429 L33.1071429,0.964285714 L31.693634,0.964285714 L29.8875486,5.59606141" id="Fill-240" fill="#0B1015"></path>
                            <path d="M33.75,8.03571429 L37.6071429,8.03571429 L37.6071429,6.83858969 L35.1089227,6.83858969 L35.1089227,4.92863989 L37.5115715,4.92863989 L37.5115715,3.73124145 L35.1089227,3.73124145 L35.1089227,2.16168416 L37.6071429,2.16168416 L37.6071429,0.964285714 L33.75,0.964285714 L33.75,8.03571429" id="Fill-241" fill="#0B1015"></path>
                            <path d="M43.4224761,3.05127796 C43.4224761,1.72654039 42.515707,0.964285714 40.9309403,0.964285714 L38.8928571,0.964285714 L38.8928571,8.03571429 L40.2668488,8.03571429 L40.2668488,5.19372433 L40.4465394,5.19372433 L42.3462416,8.03571429 L44.0357143,8.03571429 L41.8169863,5.05693747 C42.8532744,4.84429485 43.4224761,4.13352351 43.4224761,3.05127796 C43.4224761,3.05127796 43.4224761,4.13352351 43.4224761,3.05127796 L43.4224761,3.05127796 L43.4224761,3.05127796 L43.4224761,3.05127796 Z M40.6207022,4.17857143 L40.1785714,4.17857143 L40.1785714,2.25 L40.6449886,2.25 C41.59336,2.25 42.1071429,2.57545413 42.1071429,3.19481515 C42.1071429,3.83376997 41.59336,4.17857143 40.6207022,4.17857143 L40.6207022,4.17857143 L40.6207022,4.17857143 Z" id="Fill-242" fill="#0B1015"></path>
                            <path d="M23.1428571,8.03571429 C25.0955783,8.03571429 26.6785714,6.45272108 26.6785714,4.5 C26.6785714,2.54727892 25.0955783,0.964285714 23.1428571,0.964285714 C21.190136,0.964285714 19.6071429,2.54727892 19.6071429,4.5 C19.6071429,6.45272108 21.190136,8.03571429 23.1428571,8.03571429 L23.1428571,8.03571429 Z" id="Oval-1" fill="#E88137"></path>
                        </g>
                    </g>
                </g>
            </g>
        </g>
    </g>
</svg>