<?xml version="1.0" encoding="UTF-8" standalone="no"?>
<svg width="29px" height="25px" viewBox="0 0 29 25" version="1.1" xmlns="http://www.w3.org/2000/svg" xmlns:xlink="http://www.w3.org/1999/xlink" xmlns:sketch="http://www.bohemiancoding.com/sketch/ns">
    <!-- Generator: Sketch 3.4 (15575) - http://www.bohemiancoding.com/sketch -->
    <title>mastercard</title>
    <desc>Created with Sketch.</desc>
    <defs>
        <rect id="path-1" x="0" y="0" width="29" height="25" rx="1"></rect>
    </defs>
    <g id="Page-1" stroke="none" stroke-width="1" fill="none" fill-rule="evenodd" sketch:type="MSPage">
        <g id="mastercard" sketch:type="MSArtboardGroup">
            <g sketch:type="MSLayerGroup">
                <rect id="box" stroke-opacity="0" stroke="#000000" fill-opacity="0" fill="#ECECEC" sketch:type="MSShapeGroup" x="0" y="0" width="29" height="25"></rect>
                <g id="brand">
                    <mask id="mask-2" sketch:name="mask" fill="white">
                        <use xlink:href="#path-1"></use>
                    </mask>
                    <use id="mask" sketch:type="MSShapeGroup" xlink:href="#path-1"></use>
                    <g id="mark" mask="url(#mask-2)" sketch:type="MSShapeGroup">
                        <g transform="translate(-0.200000, 3.500000)">
                            <path d="M20.2342109,17.75 L20.6729656,17.7384618 L21.1057995,17.7070354 L21.5302833,17.6526845 L21.9518825,17.5779899 L22.3617918,17.4834072 L22.7660838,17.3687844 L23.1617222,17.2339698 L23.5488587,17.0819997 L23.9271898,16.9099896 L24.2942863,16.7235568 L24.6498446,16.517084 L24.9967493,16.2963403 L25.3293831,16.0584411 L25.6504787,15.8059674 L25.9601879,15.5393745 L26.2554744,15.2556262 L26.5393745,14.9601879 L26.8059674,14.6504787 L27.0582893,14.3293831 L27.2963403,13.9967493 L27.517084,13.6498446 L27.7235568,13.2942863 L27.9099896,12.9273416 L28.0819997,12.5487069 L28.233818,12.161874 L28.3686326,11.765932 L28.4834072,11.3617918 L28.5779899,10.9517307 L28.6525327,10.5301315 L28.7070354,10.1059513 L28.7386136,9.67296564 L28.75,9.2342109 L28.7386136,8.79834072 L28.7070354,8.36839144 L28.6525327,7.94390762 L28.5779899,7.52822926 L28.4834072,7.11816818 L28.3686326,6.71676073 L28.233818,6.32112238 L28.0819997,5.9368704 L27.9099896,5.56127206 L27.7235568,5.19432736 L27.517084,4.84165357 L27.2963403,4.49459706 L27.0582893,4.16196328 L26.8059674,3.84375223 L26.5393745,3.53404301 L26.2554744,3.23875652 L25.9601879,2.95774094 L25.6504787,2.6911481 L25.3293831,2.43882618 L24.9967493,2.20077517 L24.6498446,1.98003144 L24.2942863,1.77644317 L23.9271898,1.59016218 L23.5488587,1.41800029 L23.1617222,1.26618204 L22.7660838,1.13136744 L22.3617918,1.01674466 L21.9518825,0.922010074 L21.5302833,0.847467314 L21.1057995,0.792964564 L20.6729656,0.761538187 L20.2342109,0.75 L19.7983407,0.761538187 L19.3653551,0.792964564 L18.9410231,0.847467314 L18.5224602,0.922010074 L18.1123991,1.01674466 L17.7081071,1.13136744 L17.3153533,1.26618204 L16.9283686,1.41800029 L16.5526184,1.59016218 L16.1885583,1.77644317 L15.8329999,1.98003144 L15.488828,2.20077517 L15.156346,2.43882618 L14.8352504,2.6911481 L14.5284257,2.95774094 L14.2329874,3.23875652 L13.9519719,3.53404301 L13.685379,3.84375223 L13.4330571,4.16196328 L13.1978906,4.49459706 L12.9771469,4.84165357 L12.7737104,5.19432736 L12.5843931,5.56127206 L12.4152676,5.9368704 L12.2631457,6.32112238 L12.1313674,6.71676073 L12.0165928,7.11816818 L11.9220101,7.52822926 L11.8474673,7.94390762 L11.7929646,8.36839144 L11.7615382,8.79834072 L11.75,9.2342109 L11.7615382,9.67296564 L11.7929646,10.1059513 L11.8474673,10.5301315 L11.9220101,10.9517307 L12.0165928,11.3617918 L12.1313674,11.765932 L12.2631457,12.161874 L12.4152676,12.5487069 L12.5843931,12.9273416 L12.7737104,13.2942863 L12.9771469,13.6498446 L13.1978906,13.9967493 L13.4330571,14.3293831 L13.685379,14.6504787 L13.9519719,14.9601879 L14.2329874,15.2556262 L14.5284257,15.5393745 L14.8352504,15.8059674 L15.156346,16.0584411 L15.488828,16.2963403 L15.8329999,16.517084 L16.1885583,16.7235568 L16.5526184,16.9099896 L16.9283686,17.0819997 L17.3153533,17.2339698 L17.7081071,17.3687844 L18.1123991,17.4834072 L18.5224602,17.5779899 L18.9410231,17.6526845 L19.3653551,17.7070354 L19.7983407,17.7384618 L20.2342109,17.75" id="Fill-1" stroke="none" fill="#F2AD3D" fill-rule="evenodd"></path>
                            <path d="M9.2657891,17.75 L9.70165928,17.7384618 L10.1346449,17.7070354 L10.5589769,17.6526845 L10.9775398,17.5779899 L11.3876009,17.4834072 L11.7918929,17.3687844 L12.1846467,17.2339698 L12.5717832,17.0819997 L12.9473816,16.9099896 L13.3115936,16.7235568 L13.6671519,16.517084 L14.011172,16.2963403 L14.3438058,16.0584411 L14.6649014,15.8059674 L14.9717261,15.5393745 L15.2670126,15.2556262 L15.54818,14.9601879 L15.814621,14.6504787 L16.0670947,14.3293831 L16.3021094,13.9967493 L16.5230049,13.6498446 L16.7264414,13.2942863 L16.9156069,12.9273416 L17.0848843,12.5487069 L17.2370061,12.161874 L17.3687844,11.765932 L17.4834072,11.3617918 L17.5781417,10.9517307 L17.6525327,10.5301315 L17.7070354,10.1059513 L17.7386136,9.67296564 L17.75,9.2342109 L17.7386136,8.79834072 L17.7070354,8.36839144 L17.6525327,7.94390762 L17.5781417,7.52822926 L17.4834072,7.11816818 L17.3687844,6.71676073 L17.2370061,6.32112238 L17.0848843,5.9368704 L16.9156069,5.56127206 L16.7264414,5.19432736 L16.5230049,4.84165357 L16.3021094,4.49459706 L16.0670947,4.16196328 L15.814621,3.84375223 L15.54818,3.53404301 L15.2670126,3.23875652 L14.9717261,2.95774094 L14.6649014,2.6911481 L14.3438058,2.43882618 L14.011172,2.20077517 L13.6671519,1.98003144 L13.3115936,1.77644317 L12.9473816,1.59016218 L12.5717832,1.41800029 L12.1846467,1.26618204 L11.7918929,1.13136744 L11.3876009,1.01674466 L10.9775398,0.922010074 L10.5589769,0.847467314 L10.1346449,0.792964564 L9.70165928,0.761538187 L9.2657891,0.75 L8.82718618,0.761538187 L8.39420054,0.792964564 L7.96986854,0.847467314 L7.54826927,0.922010074 L7.13836001,1.01674466 L6.73406801,1.13136744 L6.33842966,1.26618204 L5.95129313,1.41800029 L5.57281025,1.59016218 L5.20586554,1.77644317 L4.85030721,1.98003144 L4.50340251,2.20077517 L4.17076874,2.43882618 L3.84952133,2.6911481 L3.5398121,2.95774094 L3.24452561,3.23875652 L2.96077731,3.53404301 L2.69403265,3.84375223 L2.44186254,4.16196328 L2.20381153,4.49459706 L1.98291598,4.84165357 L1.77659498,5.19432736 L1.59016218,5.56127206 L1.4181521,5.9368704 L1.26618204,6.32112238 L1.13136744,6.71676073 L1.01674466,7.11816818 L0.922161892,7.52822926 L0.847619133,7.94390762 L0.793116382,8.36839144 L0.761538187,8.79834072 L0.75,9.2342109 L0.761538187,9.67296564 L0.793116382,10.1059513 L0.847619133,10.5301315 L0.922161892,10.9517307 L1.01674466,11.3617918 L1.13136744,11.765932 L1.26618204,12.161874 L1.4181521,12.5487069 L1.59016218,12.9273416 L1.77659498,13.2942863 L1.98291598,13.6498446 L2.20381153,13.9967493 L2.44186254,14.3293831 L2.69403265,14.6504787 L2.96077731,14.9601879 L3.24452561,15.2556262 L3.5398121,15.5393745 L3.84952133,15.8059674 L4.17076874,16.0584411 L4.50340251,16.2963403 L4.85030721,16.517084 L5.20586554,16.7235568 L5.57281025,16.9099896 L5.95129313,17.0819997 L6.33842966,17.2339698 L6.73406801,17.3687844 L7.13836001,17.4834072 L7.54826927,17.5779899 L7.96986854,17.6526845 L8.39420054,17.7070354 L8.82718618,17.7384618 L9.2657891,17.75" id="Fill-2" stroke="none" fill="#D82331" fill-rule="evenodd"></path>
                            <path id="Fill-3" stroke="none" fill="#F2AD3D" fill-rule="evenodd" d="M13.59052,4.11220367 L18.0742375,4.11220367 L18.0742375,3.65382321 L13.9777542,3.65382321 L13.59052,4.11220367"></path>
                            <path id="Fill-4" stroke="none" fill="#F2AD3D" fill-rule="evenodd" d="M12.9187009,5.13131259 L18.0742375,5.13131259 L18.0742375,4.67308287 L13.1891167,4.67308287 L12.9187009,5.13131259"></path>
                            <path id="Fill-5" stroke="none" fill="#F2AD3D" fill-rule="evenodd" d="M12.4176629,6.14755759 L18.0742375,6.14755759 L18.0742375,5.68917713 L12.6169325,5.68917713 L12.4176629,6.14755759"></path>
                            <path id="Fill-6" stroke="none" fill="#F2AD3D" fill-rule="evenodd" d="M12.0732369,7.16666651 L18.0742375,7.16666651 L18.0742375,6.70843679 L12.2155293,6.70843679 L12.0732369,7.16666651"></path>
                            <path id="Fill-7" stroke="none" fill="#F2AD3D" fill-rule="evenodd" d="M12.2725066,12.0917316 L18.0884064,12.0917316 L18.0884064,11.6333512 L12.1302142,11.6333512 L12.2725066,12.0917316"></path>
                            <path id="Fill-8" stroke="none" fill="#F2AD3D" fill-rule="evenodd" d="M12.7023984,13.1106898 L18.0884064,13.1106898 L18.0884064,12.6524601 L12.4888091,12.6524601 L12.7023984,13.1106898"></path>
                            <path id="Fill-9" stroke="none" fill="#F2AD3D" fill-rule="evenodd" d="M13.3057844,14.1272363 L18.0884064,14.1272363 L18.0884064,13.6688558 L13.0183357,13.6688558 L13.3057844,14.1272363"></path>
                            <path id="Fill-10" stroke="none" fill="#F2AD3D" fill-rule="evenodd" d="M14.1372302,15.1461945 L18.0884064,15.1461945 L18.0884064,14.6851008 L13.735827,14.6851008 L14.1372302,15.1461945"></path>
                            <path id="Fill-11" stroke="none" fill="#F2AD3D" fill-rule="evenodd" d="M11.8711034,8.18306224 L18.0742375,8.18306224 L18.0742375,7.72468179 L11.9592824,7.72468179 L11.8711034,8.18306224"></path>
                            <path id="Fill-12" stroke="none" fill="#F2AD3D" fill-rule="evenodd" d="M15.6516493,11.0754866 L18.0172602,11.0754866 L18.0172602,10.6171062 L15.7371152,10.6171062 L15.6516493,11.0754866"></path>
                            <path id="Fill-13" stroke="none" fill="#F2AD3D" fill-rule="evenodd" d="M15.8394632,10.0590909 L18.0172602,10.0590909 L18.0172602,9.5978465 L15.9249291,9.5978465 L15.8394632,10.0590909"></path>
                            <path id="Fill-14" stroke="none" fill="#F2AD3D" fill-rule="evenodd" d="M11.7144913,9.5978465 L12.3294838,9.5978465 L12.3294838,10.0590909 L11.7429799,10.0590909 L11.7144913,9.5978465"></path>
                            <path d="M10.5672589,9.0428459 L10.5273146,9.03998196 L10.4875209,9.03425409 L10.4505912,9.02852622 L10.4135108,9.02279835 L10.3792943,9.01722121 L10.3423646,9.01149334 L10.3052842,9.00576547 L10.2654905,9.0000376 L10.2256969,8.99430973 L10.1801754,8.99144579 L10.128926,8.98873259 L10.0748127,8.98586865 L10.0149715,8.98586865 L9.94955321,8.98873259 L9.87554308,8.99430973 L9.79294114,9.0000376 L9.73596389,9.0086294 L9.68200131,9.01722121 L9.63361587,9.03425409 L9.59080757,9.05128697 L9.5508632,9.07118379 L9.51393351,9.09409528 L9.48544488,9.12243317 L9.45982019,9.14805786 L9.44278731,9.17941042 L9.42846763,9.21076298 L9.4228905,9.24497947 L9.4228905,9.27919597 L9.43133157,9.31612566 L9.44278731,9.35305536 L9.46554807,9.39013579 L9.49403669,9.42706549 L9.5508632,9.48102807 L9.6192962,9.52398711 L9.6990342,9.56091681 L9.78434933,9.59226937 L9.87554308,9.62060726 L9.96945002,9.65195982 L10.063357,9.68617631 L10.1545507,9.72325674 L10.2398659,9.77149145 L10.3196039,9.83133263 L10.39075,9.90247883 L10.4505912,9.9906579 L10.4961127,10.0988845 L10.5246014,10.2271587 L10.5360571,10.3807561 L10.5246014,10.5601289 L10.5047045,10.6938295 L10.470488,10.8106479 L10.4249665,10.9188746 L10.3679893,11.0127815 L10.302571,11.0952327 L10.2285608,11.1663789 L10.1488228,11.229084 L10.060493,11.2833481 L9.96945002,11.3258549 L9.87554308,11.3629353 L9.7787722,11.3912732 L9.67913738,11.4141847 L9.58221576,11.4312176 L9.48830882,11.4398094 L9.39440187,11.4455373 L9.30607206,11.4482505 L9.18367649,11.4482505 L9.06987273,11.4455373 L8.97023791,11.4455373 L8.87633097,11.4425226 L8.79086509,11.4398094 L8.71399103,11.4339308 L8.64570877,11.4283537 L8.58029045,11.4199126 L8.52044927,11.4141847 L8.46633595,11.402729 L8.41222264,11.3942879 L8.3638372,11.3799682 L8.31545176,11.3686632 L8.22440875,11.3344467 L8.17602331,11.3172631 L8.30399602,10.6882524 L8.32977144,10.6938295 L8.36097326,10.7024213 L8.4007669,10.713877 L8.44930307,10.7251821 L8.50055245,10.7364871 L8.5575297,10.7480935 L8.62008408,10.7621118 L8.68836634,10.7737182 L8.75951253,10.7850232 L8.83352266,10.7963282 L8.91039673,10.8050708 L8.99013473,10.8135119 L9.07273667,10.8163758 L9.15518787,10.819089 L9.23778981,10.819089 L9.32039174,10.8163758 L9.40299368,10.7993429 L9.468412,10.7764314 L9.51966138,10.7450789 L9.55945501,10.7052852 L9.58794364,10.6654916 L9.61070439,10.6198194 L9.62502407,10.5742979 L9.63632908,10.5316403 L9.64205695,10.4490384 L9.61643226,10.3780429 L9.56804682,10.3210656 L9.49674989,10.2725295 L9.41158549,10.2298719 L9.31179994,10.1872143 L9.20086011,10.14727 L9.08976955,10.1018992 L8.97596578,10.0506498 L8.86773916,9.9906579 L8.76810434,9.91664777 L8.67706133,9.8284687 L8.6057644,9.72024207 L8.55466576,9.59226937 L8.52904107,9.4383705 L8.53190501,9.25628448 L8.54607395,9.14519392 L8.56597077,9.03998196 L8.5944594,8.94321108 L8.62852516,8.85201734 L8.67404666,8.7667022 L8.72544677,8.69254134 L8.78513722,8.62139514 L8.85628342,8.55884076 L8.93888535,8.50472745 L9.02992836,8.45920594 L9.13242712,8.41639764 L9.24638161,8.38519581 L9.37450505,8.35957112 L9.51393351,8.33967431 L9.66768164,8.32821856 L9.83574944,8.32535463 L9.9409614,8.32535463 L10.0377323,8.32821856 L10.1260621,8.3310825 L10.2058001,8.33394643 L10.2769463,8.33967431 L10.3423646,8.34540218 L10.3993419,8.35097932 L10.4505912,8.35670719 L10.4989767,8.36243506 L10.5387703,8.37087613 L10.5758507,8.376604 L10.6099165,8.38233188 L10.6384051,8.38805975 L10.6641805,8.39092368 L10.6896545,8.39665155 L10.7124153,8.39951549 L10.5672589,9.0428459" id="Fill-15" stroke="none" fill="#FFFFFF" fill-rule="evenodd"></path>
                            <path d="M10.5672589,9.0428459 L10.5672589,9.0428459 L10.5273146,9.03998196 L10.4875209,9.03425409 L10.4505912,9.02852622 L10.4135108,9.02279835 L10.3792943,9.01722121 L10.3423646,9.01149334 L10.3052842,9.00576547 L10.2654905,9.0000376 L10.2256969,8.99430973 L10.1801754,8.99144579 L10.128926,8.98873259 L10.0748127,8.98586865 L10.0149715,8.98586865 L9.94955321,8.98873259 L9.87554308,8.99430973 L9.79294114,9.0000376 L9.73596389,9.0086294 L9.68200131,9.01722121 L9.63361587,9.03425409 L9.59080757,9.05128697 L9.5508632,9.07118379 L9.51393351,9.09409528 L9.48544488,9.12243317 L9.45982019,9.14805786 L9.44278731,9.17941042 L9.42846763,9.21076298 L9.4228905,9.24497947 L9.4228905,9.27919597 L9.43133157,9.31612566 L9.44278731,9.35305536 L9.46554807,9.39013579 L9.49403669,9.42706549 L9.5508632,9.48102807 L9.6192962,9.52398711 L9.6990342,9.56091681 L9.78434933,9.59226937 L9.87554308,9.62060726 L9.96945002,9.65195982 L10.063357,9.68617631 L10.1545507,9.72325674 L10.2398659,9.77149145 L10.3196039,9.83133263 L10.39075,9.90247883 L10.4505912,9.9906579 L10.4961127,10.0988845 L10.5246014,10.2271587 L10.5360571,10.3807561 L10.5246014,10.5601289 L10.5047045,10.6938295 L10.470488,10.8106479 L10.4249665,10.9188746 L10.3679893,11.0127815 L10.302571,11.0952327 L10.2285608,11.1663789 L10.1488228,11.229084 L10.060493,11.2833481 L9.96945002,11.3258549 L9.87554308,11.3629353 L9.7787722,11.3912732 L9.67913738,11.4141847 L9.58221576,11.4312176 L9.48830882,11.4398094 L9.39440187,11.4455373 L9.30607206,11.4482505 L9.18367649,11.4482505 L9.06987273,11.4455373 L8.97023791,11.4455373 L8.87633097,11.4425226 L8.79086509,11.4398094 L8.71399103,11.4339308 L8.64570877,11.4283537 L8.58029045,11.4199126 L8.52044927,11.4141847 L8.46633595,11.402729 L8.41222264,11.3942879 L8.3638372,11.3799682 L8.31545176,11.3686632 L8.22440875,11.3344467 L8.17602331,11.3172631 L8.30399602,10.6882524 L8.32977144,10.6938295 L8.36097326,10.7024213 L8.4007669,10.713877 L8.44930307,10.7251821 L8.50055245,10.7364871 L8.5575297,10.7480935 L8.62008408,10.7621118 L8.68836634,10.7737182 L8.75951253,10.7850232 L8.83352266,10.7963282 L8.91039673,10.8050708 L8.99013473,10.8135119 L9.07273667,10.8163758 L9.15518787,10.819089 L9.23778981,10.819089 L9.32039174,10.8163758 L9.40299368,10.7993429 L9.468412,10.7764314 L9.51966138,10.7450789 L9.55945501,10.7052852 L9.58794364,10.6654916 L9.61070439,10.6198194 L9.62502407,10.5742979 L9.63632908,10.5316403 L9.64205695,10.4490384 L9.61643226,10.3780429 L9.56804682,10.3210656 L9.49674989,10.2725295 L9.41158549,10.2298719 L9.31179994,10.1872143 L9.20086011,10.14727 L9.08976955,10.1018992 L8.97596578,10.0506498 L8.86773916,9.9906579 L8.76810434,9.91664777 L8.67706133,9.8284687 L8.6057644,9.72024207 L8.55466576,9.59226937 L8.52904107,9.4383705 L8.53190501,9.25628448 L8.54607395,9.14519392 L8.56597077,9.03998196 L8.5944594,8.94321108 L8.62852516,8.85201734 L8.67404666,8.7667022 L8.72544677,8.69254134 L8.78513722,8.62139514 L8.85628342,8.55884076 L8.93888535,8.50472745 L9.02992836,8.45920594 L9.13242712,8.41639764 L9.24638161,8.38519581 L9.37450505,8.35957112 L9.51393351,8.33967431 L9.66768164,8.32821856 L9.83574944,8.32535463 L9.9409614,8.32535463 L10.0377323,8.32821856 L10.1260621,8.3310825 L10.2058001,8.33394643 L10.2769463,8.33967431 L10.3423646,8.34540218 L10.3993419,8.35097932 L10.4505912,8.35670719 L10.4989767,8.36243506 L10.5387703,8.37087613 L10.5758507,8.376604 L10.6099165,8.38233188 L10.6384051,8.38805975 L10.6641805,8.39092368 L10.6896545,8.39665155 L10.7124153,8.39951549 L10.5672589,9.0428459" id="Stroke-16" stroke="#FFFFFF" stroke-width="0.216" fill="none"></path>
                            <path d="M11.2419419,7.6963439 L12.0305794,7.6963439 L11.9137609,8.38519581 L12.3891743,8.38519581 L12.2866755,9.02852622 L11.7857882,9.01435728 L11.5125085,10.6027865 L11.5096445,10.6597637 L11.5238135,10.7081492 L11.5523021,10.7450789 L11.5892318,10.7764314 L11.6404812,10.7963282 L11.6974584,10.8135119 L11.7600128,10.8248169 L11.8284458,10.8305447 L11.8910002,10.8276808 L11.9479774,10.8219529 L11.9992268,10.8135119 L12.0447483,10.8020561 L12.081678,10.7907511 L12.1073027,10.7821593 L12.1244863,10.7764314 L12.1302142,10.7737182 L12.0305794,11.3030941 L12.0106826,11.3172631 L11.990635,11.3287188 L11.9707382,11.3400238 L11.9508414,11.3516303 L11.9309445,11.3600714 L11.9081838,11.3686632 L11.8825591,11.377255 L11.8569344,11.3856961 L11.8284458,11.3942879 L11.7999572,11.399865 L11.7657407,11.4055929 L11.7316749,11.4113208 L11.6945945,11.4168979 L11.6519369,11.4226258 L11.6064154,11.4283537 L11.5578792,11.4339308 L11.3415767,11.4339308 L11.2276222,11.4254897 L11.1281381,11.4141847 L11.0369444,11.3970011 L10.9600703,11.377255 L10.894652,11.3516303 L10.8406894,11.322991 L10.7921533,11.2889252 L10.7552236,11.2518448 L10.7267349,11.2120511 L10.7066874,11.1636657 L10.6925184,11.1151295 L10.6840774,11.0611669 L10.6810627,11.0013258 L10.6810627,10.9386206 L10.6896545,10.873353 L10.6982463,10.8020561 L11.2419419,7.6963439" id="Fill-17" stroke="none" fill="#FFFFFF" fill-rule="evenodd"></path>
                            <path d="M11.2419419,7.6963439 L12.0305794,7.6963439 L11.9137609,8.38519581 L12.3891743,8.38519581 L12.2866755,9.02852622 L11.7857882,9.01435728 L11.5125085,10.6027865 L11.5096445,10.6597637 L11.5238135,10.7081492 L11.5523021,10.7450789 L11.5892318,10.7764314 L11.6404812,10.7963282 L11.6974584,10.8135119 L11.7600128,10.8248169 L11.8284458,10.8305447 L11.8910002,10.8276808 L11.9479774,10.8219529 L11.9992268,10.8135119 L12.0447483,10.8020561 L12.081678,10.7907511 L12.1073027,10.7821593 L12.1244863,10.7764314 L12.1302142,10.7737182 L12.0305794,11.3030941 L12.0106826,11.3172631 L11.990635,11.3287188 L11.9707382,11.3400238 L11.9508414,11.3516303 L11.9309445,11.3600714 L11.9081838,11.3686632 L11.8825591,11.377255 L11.8569344,11.3856961 L11.8284458,11.3942879 L11.7999572,11.399865 L11.7657407,11.4055929 L11.7316749,11.4113208 L11.6945945,11.4168979 L11.6519369,11.4226258 L11.6064154,11.4283537 L11.5578792,11.4339308 L11.3415767,11.4339308 L11.2276222,11.4254897 L11.1281381,11.4141847 L11.0369444,11.3970011 L10.9600703,11.377255 L10.894652,11.3516303 L10.8406894,11.322991 L10.7921533,11.2889252 L10.7552236,11.2518448 L10.7267349,11.2120511 L10.7066874,11.1636657 L10.6925184,11.1151295 L10.6840774,11.0611669 L10.6810627,11.0013258 L10.6810627,10.9386206 L10.6896545,10.873353 L10.6982463,10.8020561 L11.2419419,7.6963439" id="Stroke-18" stroke="#FFFFFF" stroke-width="0.216" fill="none"></path>
                            <path d="M13.0097439,10.1501339 L13.0070307,10.2013833 L13.0126079,10.2554966 L13.0240636,10.3094592 L13.0439604,10.3637232 L13.0667212,10.4149726 L13.0980737,10.4689352 L13.1322902,10.5173206 L13.1720839,10.5658568 L13.2148922,10.6085144 L13.2604137,10.6511719 L13.3116631,10.6853884 L13.3627617,10.716741 L13.4197389,10.7423657 L13.4767162,10.7621118 L13.5336934,10.7737182 L13.6075528,10.7850232 L13.6788498,10.793615 L13.7528599,10.8020561 L13.82687,10.807784 L13.9008801,10.8106479 L13.9777542,10.8106479 L14.0517643,10.807784 L14.1286384,10.8020561 L14.2055125,10.7907511 L14.2823865,10.7764314 L14.3619738,10.7593986 L14.4389986,10.7337739 L14.5185859,10.7024213 L14.6010371,10.6682048 L14.6809258,10.622834 L14.763377,10.5742979 L14.6495732,11.2746055 L14.6040517,11.2973663 L14.5585302,11.3202778 L14.512858,11.3373106 L14.4702004,11.3543435 L14.4275429,11.3686632 L14.3820214,11.3828321 L14.3363491,11.3942879 L14.2881144,11.402729 L14.2367143,11.4113208 L14.1798878,11.4168979 L14.1200466,11.4226258 L14.0546283,11.4283537 L13.9806181,11.4312176 L13.9037441,11.4312176 L13.8154143,11.4339308 L13.7215073,11.4339308 L13.5820789,11.4312176 L13.4396358,11.4168979 L13.2973434,11.3970011 L13.155051,11.3629353 L13.0154718,11.3202778 L12.8817712,11.2660137 L12.7536478,11.1950183 L12.6339654,11.1124163 L12.5230256,11.0156454 L12.4262547,10.8989777 L12.3436528,10.7679904 L12.2753705,10.6171062 L12.2269851,10.4490384 L12.1956325,10.2583605 L12.1870407,10.0476352 L12.2013604,9.81414902 L12.2126654,9.72325674 L12.229849,9.61789405 L12.2526098,9.50680349 L12.2839623,9.38712112 L12.3266199,9.26487629 L12.3778693,9.14232998 L12.4432876,9.01722121 L12.5230256,8.89753884 L12.6140686,8.78373508 L12.7251592,8.67550846 L12.8504187,8.57873757 L12.992711,8.49342244 L13.1579149,8.42212551 L13.3428649,8.37087613 L13.5478624,8.33681037 L13.7784846,8.32535463 L13.8894244,8.32821856 L14.0062428,8.33967431 L14.1229105,8.35957112 L14.2395782,8.38805975 L14.3535327,8.43071732 L14.4646233,8.48196669 L14.5669713,8.55024895 L14.661029,8.62998695 L14.7463441,8.72675783 L14.8174903,8.84071233 L14.8744676,8.97154897 L14.9142612,9.12243317 L14.9371727,9.29321418 L14.9398859,9.48690668 L14.9201398,9.70320919 L14.8771808,9.94242319 L14.8631626,10.1159174 L12.7878643,10.1159174 L12.9187009,9.55518893 L14.1655681,9.55518893 L14.171296,9.48404274 L14.168432,9.41576048 L14.1627042,9.35305536 L14.1513992,9.29622885 L14.1315023,9.24211554 L14.1114548,9.19357936 L14.0831169,9.15092179 L14.0546283,9.11112816 L14.0204118,9.07691166 L13.9834821,9.04842304 L13.9406738,9.02279835 L13.8980162,9.0000376 L13.8524947,8.98300472 L13.8069732,8.97154897 L13.758437,8.9631079 L13.7073384,8.95738003 L13.6532251,8.96024396 L13.6019757,8.96868504 L13.5535903,8.98014078 L13.5052048,8.99717366 L13.4566686,9.01993441 L13.4140111,9.04570984 L13.3713535,9.07691166 L13.3342731,9.11112816 L13.2973434,9.15092179 L13.2631269,9.19357936 L13.2317743,9.23910087 L13.2063004,9.28763704 L13.1805249,9.33888642 L13.1607789,9.39586367 L13.1435952,9.45269018 L13.1322902,9.51238063 L13.0183357,10.1018992 L13.0097439,10.1501339 L13.0097439,10.1501339 Z" id="Fill-19" stroke="none" fill="#FFFFFF" fill-rule="evenodd"></path>
                            <path d="M13.0667212,9.51238065 L13.0183357,10.1018992 L13.0097439,10.1501339 L13.0070307,10.2013833 L13.0126079,10.2554966 L13.0240636,10.3094592 L13.0439604,10.3637232 L13.0667212,10.4149726 L13.0980737,10.4689352 L13.1322902,10.5173206 L13.1720839,10.5658568 L13.2148922,10.6085144 L13.2604137,10.6511719 L13.3116631,10.6853884 L13.3627617,10.716741 L13.4197389,10.7423657 L13.4767162,10.7621118 L13.5336934,10.7737182 L13.6075528,10.7850232 L13.6788498,10.793615 L13.7528599,10.8020561 L13.82687,10.807784 L13.9008801,10.8106479 L13.9777542,10.8106479 L14.0517643,10.807784 L14.1286384,10.8020561 L14.2055125,10.7907511 L14.2823865,10.7764314 L14.3619738,10.7593986 L14.4389986,10.7337739 L14.5185859,10.7024213 L14.6010371,10.6682048 L14.6809258,10.622834 L14.763377,10.5742979 L14.6495732,11.2746055 L14.6040517,11.2973663 L14.5585302,11.3202778 L14.512858,11.3373106 L14.4702004,11.3543435 L14.4275429,11.3686632 L14.3820214,11.3828321 L14.3363491,11.3942879 L14.2881144,11.402729 L14.2367143,11.4113208 L14.1798878,11.4168979 L14.1200466,11.4226258 L14.0546283,11.4283537 L13.9806181,11.4312176 L13.9037441,11.4312176 L13.8154143,11.4339308 L13.7215073,11.4339308 L13.5820789,11.4312176 L13.4396358,11.4168979 L13.2973434,11.3970011 L13.155051,11.3629353 L13.0154718,11.3202778 L12.8817712,11.2660137 L12.7536478,11.1950183 L12.6339654,11.1124163 L12.5230256,11.0156454 L12.4262547,10.8989777 L12.3436528,10.7679904 L12.2753705,10.6171062 L12.2269851,10.4490384 L12.1956325,10.2583605 L12.1870407,10.0476352 L12.2013604,9.81414902 L12.2126654,9.72325674 L12.229849,9.61789405 L12.2526098,9.50680349 L12.2839623,9.38712112 L12.3266199,9.26487629 L12.3778693,9.14232998 L12.4432876,9.01722121 L12.5230256,8.89753884 L12.6140686,8.78373508 L12.7251592,8.67550846 L12.8504187,8.57873757 L12.992711,8.49342244 L13.1579149,8.42212551 L13.3428649,8.37087613 L13.5478624,8.33681037 L13.7784846,8.32535463 L13.8894244,8.32821856 L14.0062428,8.33967431 L14.1229105,8.35957112 L14.2395782,8.38805975 L14.3535327,8.43071732 L14.4646233,8.48196669 L14.5669713,8.55024895 L14.661029,8.62998695 L14.7463441,8.72675783 L14.8174903,8.84071233 L14.8744676,8.97154897 L14.9142612,9.12243317 L14.9371727,9.29321418 L14.9398859,9.48690668 L14.9201398,9.70320919 L14.8771808,9.94242319 L14.8631626,10.1159174 L12.8188477,10.1018992 L12.9187009,9.55518893 L14.1655681,9.55518893 L14.171296,9.48404274 L14.168432,9.41576048 L14.1627042,9.35305536 L14.1513992,9.29622885 L14.1315023,9.24211554 L14.1114548,9.19357936 L14.0831169,9.15092179 L14.0546283,9.11112816 L14.0204118,9.07691166 L13.9834821,9.04842304 L13.9406738,9.02279835 L13.8980162,9.0000376 L13.8524947,8.98300472 L13.8069732,8.97154897 L13.758437,8.9631079 L13.7073384,8.95738003 L13.6532251,8.96024396 L13.6019757,8.96868504 L13.5535903,8.98014078 L13.5052048,8.99717366 L13.4566686,9.01993441 L13.4140111,9.04570984 L13.3713535,9.07691166 L13.3342731,9.11112816 L13.2973434,9.15092179 L13.2631269,9.19357936 L13.2317743,9.23910087 L13.2063004,9.28763704 L13.1805249,9.33888642 L13.1607789,9.39586367 L13.1435952,9.45269018 L13.1322902,9.51238063 L13.0183357,10.1018992" id="Stroke-20" stroke="#FFFFFF" stroke-width="0.216" fill="none"></path>
                            <path d="M12.5,9.5 L12.5,10.5 L13,10.5 L13.0616455,9.5 L12.5,9.5 L12.5,9.5 Z" id="Rectangle-66" stroke="none" fill="#FFFFFF" fill-rule="evenodd"></path>
                            <path d="M19.807823,8.55597682 L19.7708933,8.53608001 L19.7339636,8.51904712 L19.6940192,8.49899957 L19.6513617,8.47910276 L19.6087041,8.46206988 L19.5117825,8.42785338 L19.4606838,8.4108205 L19.4065705,8.39665155 L19.3524572,8.38519581 L19.292616,8.37374007 L19.2329256,8.36529899 L19.1673565,8.35957112 L19.1019382,8.35384325 L18.8912128,8.35384325 L18.8172027,8.35957112 L18.7403286,8.36816293 L18.6607414,8.38233188 L18.5810034,8.40509263 L18.5012654,8.43644519 L18.4215274,8.47623882 L18.3417894,8.5274882 L18.265066,8.59019332 L18.1910559,8.66420345 L18.119759,8.75524646 L18.0514767,8.86060915 L17.9889223,8.98586865 L17.9289304,9.12816104 L17.8749678,9.28763704 L17.8294463,9.46972306 L17.8124135,9.57222181 L17.8009577,9.67185663 L17.7952298,9.77149145 L17.7980938,9.86841307 L17.8066856,9.96503321 L17.8265824,10.056227 L17.8522071,10.1415421 L17.8835596,10.2271587 L17.9262172,10.303882 L17.9774666,10.3780429 L18.037157,10.4433105 L18.1054393,10.5031517 L18.1824641,10.5542503 L18.2706432,10.5972093 L18.3675648,10.634139 L18.4756407,10.6597637 L18.5125704,10.6682048 L18.5553787,10.6767966 L18.6066281,10.6825245 L18.6634546,10.6882524 L18.726009,10.6938295 L18.8628749,10.6938295 L18.9338704,10.6882524 L19.0080313,10.6796606 L19.0820414,10.6654916 L19.1530369,10.6455948 L19.2243338,10.622834 L19.29548,10.5914815 L19.3608983,10.5542503 L19.4207395,10.5088795 L19.4777167,10.4576302 L19.3495933,11.217779 L19.3325604,11.231948 L19.3155275,11.2489808 L19.292616,11.2690284 L19.2669914,11.2860613 L19.2356388,11.308822 L19.1958452,11.3287188 L19.1503237,11.3486156 L19.0990743,11.3656485 L19.033656,11.3856961 L18.9594951,11.399865 L18.87418,11.4113208 L18.7745451,11.4226258 L18.6634546,11.4283537 L18.5354819,11.4312176 L18.3901748,11.4283537 L18.2306988,11.4199126 L18.0998622,11.4055929 L17.9688748,11.377255 L17.8380381,11.3344467 L17.7070508,11.2774695 L17.5817913,11.2091872 L17.4622596,11.1237213 L17.3483051,11.0242372 L17.2430932,10.9102827 L17.1490355,10.7821593 L17.0692975,10.6398669 L17.0010152,10.4803909 L16.9497659,10.306746 L16.9157001,10.1159174 L16.9042444,9.91378384 L16.9099722,9.69190418 L16.9413248,9.45555412 L16.9639348,9.33888642 L16.9895595,9.22493192 L17.0181989,9.11399209 L17.0465367,9.0086294 L17.0778893,8.90899459 L17.114819,8.80935977 L17.1518994,8.71545282 L17.1916931,8.62712302 L17.2345014,8.53879321 L17.2771589,8.456342 L17.3255444,8.376604 L17.376643,8.30259387 L17.4280431,8.23144768 L17.4848696,8.16316542 L17.5418469,8.1004603 L17.6016881,8.04076985 L17.6671064,7.98379261 L17.7326755,7.92967929 L17.8009577,7.88129385 L17.8721039,7.83577235 L17.948978,7.79296404 L18.025852,7.75603435 L18.1054393,7.72181785 L18.1880412,7.69046529 L18.276371,7.6621274 L18.3645501,7.63936665 L18.4557439,7.6193191 L18.5525147,7.60228622 L18.6492856,7.58796654 L18.7517844,7.57666153 L18.8542831,7.57093366 L18.9625098,7.56822045 L19.0535528,7.57093366 L19.1417318,7.57666153 L19.2271977,7.5851026 L19.3125129,7.59670908 L19.3924016,7.60801409 L19.4691249,7.62504697 L19.5431351,7.63936665 L19.611568,7.65639953 L19.6769864,7.67343241 L19.7339636,7.69046529 L19.7880769,7.70764891 L19.8335984,7.72468179 L19.8733921,7.73900146 L19.9074578,7.75030647 L19.9332332,7.76176222 L19.9502661,7.76749009 L19.807823,8.55597682" id="Fill-21" stroke="none" fill="#FFFFFF" fill-rule="evenodd"></path>
                            <path d="M19.807823,8.55597682 L19.807823,8.55597682 L19.7708933,8.53608001 L19.7339636,8.51904712 L19.6940192,8.49899957 L19.6513617,8.47910276 L19.6087041,8.46206988 L19.5117825,8.42785338 L19.4606838,8.4108205 L19.4065705,8.39665155 L19.3524572,8.38519581 L19.292616,8.37374007 L19.2329256,8.36529899 L19.1673565,8.35957112 L19.1019382,8.35384325 L18.8912128,8.35384325 L18.8172027,8.35957112 L18.7403286,8.36816293 L18.6607414,8.38233188 L18.5810034,8.40509263 L18.5012654,8.43644519 L18.4215274,8.47623882 L18.3417894,8.5274882 L18.265066,8.59019332 L18.1910559,8.66420345 L18.119759,8.75524646 L18.0514767,8.86060915 L17.9889223,8.98586865 L17.9289304,9.12816104 L17.8749678,9.28763704 L17.8294463,9.46972306 L17.8124135,9.57222181 L17.8009577,9.67185663 L17.7952298,9.77149145 L17.7980938,9.86841307 L17.8066856,9.96503321 L17.8265824,10.056227 L17.8522071,10.1415421 L17.8835596,10.2271587 L17.9262172,10.303882 L17.9774666,10.3780429 L18.037157,10.4433105 L18.1054393,10.5031517 L18.1824641,10.5542503 L18.2706432,10.5972093 L18.3675648,10.634139 L18.4756407,10.6597637 L18.5125704,10.6682048 L18.5553787,10.6767966 L18.6066281,10.6825245 L18.6634546,10.6882524 L18.726009,10.6938295 L18.8628749,10.6938295 L18.9338704,10.6882524 L19.0080313,10.6796606 L19.0820414,10.6654916 L19.1530369,10.6455948 L19.2243338,10.622834 L19.29548,10.5914815 L19.3608983,10.5542503 L19.4207395,10.5088795 L19.4777167,10.4576302 L19.3495933,11.217779 L19.3325604,11.231948 L19.3155275,11.2489808 L19.292616,11.2690284 L19.2669914,11.2860613 L19.2356388,11.308822 L19.1958452,11.3287188 L19.1503237,11.3486156 L19.0990743,11.3656485 L19.033656,11.3856961 L18.9594951,11.399865 L18.87418,11.4113208 L18.7745451,11.4226258 L18.6634546,11.4283537 L18.5354819,11.4312176 L18.3901748,11.4283537 L18.2306988,11.4199126 L18.0998622,11.4055929 L17.9688748,11.377255 L17.8380381,11.3344467 L17.7070508,11.2774695 L17.5817913,11.2091872 L17.4622596,11.1237213 L17.3483051,11.0242372 L17.2430932,10.9102827 L17.1490355,10.7821593 L17.0692975,10.6398669 L17.0010152,10.4803909 L16.9497659,10.306746 L16.9157001,10.1159174 L16.9042444,9.91378384 L16.9099722,9.69190418 L16.9413248,9.45555412 L16.9639348,9.33888642 L16.9895595,9.22493192 L17.0181989,9.11399209 L17.0465367,9.0086294 L17.0778893,8.90899459 L17.114819,8.80935977 L17.1518994,8.71545282 L17.1916931,8.62712302 L17.2345014,8.53879321 L17.2771589,8.456342 L17.3255444,8.376604 L17.376643,8.30259387 L17.4280431,8.23144768 L17.4848696,8.16316542 L17.5418469,8.1004603 L17.6016881,8.04076985 L17.6671064,7.98379261 L17.7326755,7.92967929 L17.8009577,7.88129385 L17.8721039,7.83577235 L17.948978,7.79296404 L18.025852,7.75603435 L18.1054393,7.72181785 L18.1880412,7.69046529 L18.276371,7.6621274 L18.3645501,7.63936665 L18.4557439,7.6193191 L18.5525147,7.60228622 L18.6492856,7.58796654 L18.7517844,7.57666153 L18.8542831,7.57093366 L18.9625098,7.56822045 L19.0535528,7.57093366 L19.1417318,7.57666153 L19.2271977,7.5851026 L19.3125129,7.59670908 L19.3924016,7.60801409 L19.4691249,7.62504697 L19.5431351,7.63936665 L19.611568,7.65639953 L19.6769864,7.67343241 L19.7339636,7.69046529 L19.7880769,7.70764891 L19.8335984,7.72468179 L19.8733921,7.73900146 L19.9074578,7.75030647 L19.9332332,7.76176222 L19.9502661,7.76749009 L19.807823,8.55597682" id="Stroke-22" stroke="#FFFFFF" stroke-width="0.216" fill="none"></path>
                            <path d="M26.8166275,11.4339308 L26.0281407,11.4339308 L26.085118,11.1181442 L26.085118,11.0895048 L26.0394457,11.1464821 L25.991211,11.1977315 L25.9426749,11.2434037 L25.8915762,11.2833481 L25.8403268,11.3202778 L25.7890775,11.3516303 L25.7378281,11.377255 L25.6837148,11.402729 L25.6296015,11.4226258 L25.5754882,11.4369455 L25.5215256,11.4512651 L25.4645483,11.4597062 L25.4075711,11.468298 L25.3534578,11.4738752 L25.2964805,11.4768898 L25.2395033,11.4768898 L25.0916337,11.4654341 L24.9549185,11.4339308 L24.829659,11.3856961 L24.7158552,11.3202778 L24.6132057,11.2376758 L24.5221627,11.1409049 L24.4424247,11.0355423 L24.3741425,10.9160106 L24.3171652,10.7877364 L24.2717944,10.6541866 L24.2402912,10.5146074 L24.2175304,10.3694511 L24.2089386,10.224144 L24.2119533,10.0761238 L24.2261222,9.93096745 L24.2518976,9.78581113 L24.2944045,9.61789405 L24.3458046,9.45841805 L24.405495,9.31326173 L24.4766412,9.17654648 L24.5506514,9.04842304 L24.6361172,8.93461928 L24.7242963,8.83212052 L24.818354,8.73821358 L24.9179888,8.65561164 L25.0232008,8.58446545 L25.1315781,8.52191106 L25.2395033,8.47337489 L25.3534578,8.43358125 L25.4672615,8.40795656 L25.581216,8.39092368 L25.6980345,8.38519581 L25.7804857,8.38805975 L25.8602237,8.39665155 L25.9342338,8.4108205 L26.002516,8.43071732 L26.0679344,8.45347807 L26.1250624,8.47910276 L26.1818889,8.51045532 L26.2331382,8.54165714 L26.2786597,8.57587364 L26.3213173,8.61295407 L26.358247,8.64988377 L26.3926142,8.6869642 L26.4209521,8.7238939 L26.4465768,8.76097433 L26.4694883,8.79519082 L26.4865212,8.82925659 L26.6857908,7.71051284 L27.4601086,7.71051284 L26.8166275,11.4339308" id="Fill-23" stroke="none" fill="#FFFFFF" fill-rule="evenodd"></path>
                            <path d="M26.8166275,11.4339308 L26.0281407,11.4339308 L26.085118,11.1181442 L26.085118,11.0895048 L26.0394457,11.1464821 L25.991211,11.1977315 L25.9426749,11.2434037 L25.8915762,11.2833481 L25.8403268,11.3202778 L25.7890775,11.3516303 L25.7378281,11.377255 L25.6837148,11.402729 L25.6296015,11.4226258 L25.5754882,11.4369455 L25.5215256,11.4512651 L25.4645483,11.4597062 L25.4075711,11.468298 L25.3534578,11.4738752 L25.2964805,11.4768898 L25.2395033,11.4768898 L25.0916337,11.4654341 L24.9549185,11.4339308 L24.829659,11.3856961 L24.7158552,11.3202778 L24.6132057,11.2376758 L24.5221627,11.1409049 L24.4424247,11.0355423 L24.3741425,10.9160106 L24.3171652,10.7877364 L24.2717944,10.6541866 L24.2402912,10.5146074 L24.2175304,10.3694511 L24.2089386,10.224144 L24.2119533,10.0761238 L24.2261222,9.93096745 L24.2518976,9.78581113 L24.2944045,9.61789405 L24.3458046,9.45841805 L24.405495,9.31326173 L24.4766412,9.17654648 L24.5506514,9.04842304 L24.6361172,8.93461928 L24.7242963,8.83212052 L24.818354,8.73821358 L24.9179888,8.65561164 L25.0232008,8.58446545 L25.1315781,8.52191106 L25.2395033,8.47337489 L25.3534578,8.43358125 L25.4672615,8.40795656 L25.581216,8.39092368 L25.6980345,8.38519581 L25.7804857,8.38805975 L25.8602237,8.39665155 L25.9342338,8.4108205 L26.002516,8.43071732 L26.0679344,8.45347807 L26.1250624,8.47910276 L26.1818889,8.51045532 L26.2331382,8.54165714 L26.2786597,8.57587364 L26.3213173,8.61295407 L26.358247,8.64988377 L26.3926142,8.6869642 L26.4209521,8.7238939 L26.4465768,8.76097433 L26.4694883,8.79519082 L26.4865212,8.82925659 L26.6857908,7.71051284 L27.4601086,7.71051284 L26.8166275,11.4339308" id="Stroke-24" stroke="#FFFFFF" stroke-width="0.216" fill="none"></path>
                            <path d="M25.5272534,10.7450789 L25.6068407,10.7395017 L25.6808508,10.7224689 L25.7491331,10.7024213 L25.8147022,10.6710687 L25.8743926,10.6368522 L25.9313699,10.5941947 L25.9854832,10.54596 L26.0338686,10.4945599 L26.0765262,10.4377333 L26.1164705,10.3750282 L26.1534002,10.3094592 L26.1847528,10.2411769 L26.2130907,10.1701815 L26.2360022,10.0961713 L26.255899,10.0192973 L26.2700679,9.94242319 L26.2843876,9.86268519 L26.2929794,9.78008326 L26.2929794,9.70320919 L26.2899648,9.62362192 L26.2815237,9.54946106 L26.2700679,9.47831487 L26.2501711,9.41003261 L26.2274104,9.34446356 L26.1990725,9.28763704 L26.164856,9.23352373 L26.1277756,9.18800222 L26.085118,9.14805786 L26.0365818,9.11399209 L25.9854832,9.09123134 L25.9313699,9.07691166 L25.8716794,9.07118379 L25.7946546,9.07691166 L25.7235084,9.08836741 L25.6580901,9.11112816 L25.592521,9.13961678 L25.5355438,9.17654648 L25.4787173,9.22221872 L25.4303318,9.27060416 L25.3819464,9.32456674 L25.3392888,9.38712112 L25.2993445,9.45269018 L25.2624148,9.52097244 L25.2310622,9.59498257 L25.2025736,9.67185663 L25.1798128,9.7487307 L25.1570521,9.83133263 L25.1400192,9.91378384 L25.1258502,10.0391941 L25.1315781,10.1757586 L25.1513242,10.3153378 L25.1884046,10.4490384 L25.2452311,10.5658568 L25.319392,10.6597637 L25.4132989,10.7224689 L25.5272534,10.7450789" id="Fill-25" stroke="none" fill="#F2AD3D" fill-rule="evenodd"></path>
                            <path d="M8.04503593,10.8020561 L7.93108143,11.4339308 L7.21374089,11.4339308 L7.23363771,11.3172631 L7.24795739,11.2120511 L7.2592624,11.1323131 L7.27071814,11.0895048 L7.23077378,11.1351771 L7.18525227,11.1806986 L7.13128969,11.2233561 L7.07144851,11.2633005 L7.00316625,11.3030941 L6.93186932,11.3373106 L6.85785919,11.3713764 L6.78098513,11.399865 L6.69853393,11.4254897 L6.61593199,11.4455373 L6.53333005,11.4625701 L6.44801491,11.4738752 L6.36541298,11.479603 L6.28281104,11.482467 L6.20322377,11.4738752 L6.12634971,11.4625701 L6.02671489,11.4369455 L5.93552115,11.4086076 L5.85593388,11.3713764 L5.78478769,11.3287188 L5.72208257,11.2833481 L5.66510532,11.231948 L5.61958381,11.1778346 L5.57963945,11.1208574 L5.54557368,11.0611669 L5.51708506,10.9984618 L5.49432431,10.9359074 L5.47714069,10.873353 L5.46583568,10.807784 L5.45724388,10.7423657 L5.45166674,10.6796606 L5.45166674,10.6171062 L5.46010781,10.5060156 L5.47714069,10.4006529 L5.50562932,10.3010181 L5.54270975,10.2042472 L5.58823125,10.1132042 L5.63948063,10.0306023 L5.69932181,9.951015 L5.76760407,9.87971807 L5.83875027,9.81414902 L5.91848827,9.75445857 L6.0010902,9.70049599 L6.08640534,9.65482375 L6.17744835,9.61503012 L6.27150603,9.58367756 L6.36827691,9.55805287 L6.46791173,9.54101999 L6.4736396,9.54101999 L6.48780855,9.53800532 L6.5078561,9.53529212 L6.53905792,9.53242818 L6.57312369,9.52670031 L6.61306805,9.52398711 L6.65572562,9.5181085 L6.7042618,9.51238063 L6.75264724,9.50680349 L6.80103268,9.50107562 L6.85228206,9.49836242 L6.89780356,9.49263455 L6.94332507,9.48977061 L6.98598264,9.48690668 L7.02577627,9.48404274 L7.12269788,9.48404274 L7.19098014,9.48690668 L7.25368526,9.48977061 L7.31623965,9.48977061 L7.36748902,9.49263455 L7.40743339,9.49534775 L7.43577128,9.49836242 L7.44436309,9.49836242 L7.45009096,9.47831487 L7.46712384,9.42706549 L7.48129279,9.36722431 L7.48702066,9.31326173 L7.47571565,9.25055661 L7.45009096,9.19357936 L7.41587447,9.14232998 L7.37035296,9.09967242 L7.31623965,9.06274272 L7.25639846,9.03711803 L7.18811621,9.01993441 L7.11410608,9.01435728 L7.03451881,9.01149334 L6.94905294,9.0086294 L6.86072313,9.0086294 L6.76968012,9.01149334 L6.67577317,9.01722121 L6.58457943,9.02566229 L6.49353642,9.03425409 L6.40520661,9.04570984 L6.31989147,9.05701485 L6.23728954,9.07118379 L6.16327941,9.08550347 L6.09499715,9.09967242 L6.03229203,9.11685603 L5.98104265,9.13388891 L5.94124902,9.15378573 L5.90989646,9.17081861 L6.11203003,8.48483063 L6.17458442,8.45920594 L6.23728954,8.43644519 L6.30557179,8.41639764 L6.37400478,8.40222869 L6.44228704,8.38805975 L6.51629717,8.376604 L6.5903073,8.36529899 L6.66718137,8.35957112 L6.74691937,8.35384325 L6.82937057,8.35097932 L6.91483644,8.34811538 L7.18811621,8.34811538 L7.28775102,8.35097932 L7.38738584,8.35384325 L7.46712384,8.35957112 L7.55258971,8.37374007 L7.64076879,8.39378762 L7.73196253,8.41941231 L7.82014161,8.45347807 L7.90545675,8.49342244 L7.99092262,8.54165714 L8.07066062,8.59577046 L8.14180681,8.65847558 L8.2043612,8.72675783 L8.26133845,8.8036319 L8.30399602,8.88909777 L8.33248464,8.98014078 L8.34966826,9.07691166 L8.34966826,9.18513829 L8.33248464,9.29894205 L8.04503593,10.8020561" id="Fill-26" stroke="none" fill="#FFFFFF" fill-rule="evenodd"></path>
                            <path d="M8.04503593,10.8020561 L7.93108143,11.4339308 L7.21374089,11.4339308 L7.23363771,11.3172631 L7.24795739,11.2120511 L7.2592624,11.1323131 L7.27071814,11.0895048 L7.23077378,11.1351771 L7.18525227,11.1806986 L7.13128969,11.2233561 L7.07144851,11.2633005 L7.00316625,11.3030941 L6.93186932,11.3373106 L6.85785919,11.3713764 L6.78098513,11.399865 L6.69853393,11.4254897 L6.61593199,11.4455373 L6.53333005,11.4625701 L6.44801491,11.4738752 L6.36541298,11.479603 L6.28281104,11.482467 L6.20322377,11.4738752 L6.12634971,11.4625701 L6.02671489,11.4369455 L5.93552115,11.4086076 L5.85593388,11.3713764 L5.78478769,11.3287188 L5.72208257,11.2833481 L5.66510532,11.231948 L5.61958381,11.1778346 L5.57963945,11.1208574 L5.54557368,11.0611669 L5.51708506,10.9984618 L5.49432431,10.9359074 L5.47714069,10.873353 L5.46583568,10.807784 L5.45724388,10.7423657 L5.45166674,10.6796606 L5.45166674,10.6171062 L5.46010781,10.5060156 L5.47714069,10.4006529 L5.50562932,10.3010181 L5.54270975,10.2042472 L5.58823125,10.1132042 L5.63948063,10.0306023 L5.69932181,9.951015 L5.76760407,9.87971807 L5.83875027,9.81414902 L5.91848827,9.75445857 L6.0010902,9.70049599 L6.08640534,9.65482375 L6.17744835,9.61503012 L6.27150603,9.58367756 L6.36827691,9.55805287 L6.46791173,9.54101999 L6.4736396,9.54101999 L6.48780855,9.53800532 L6.5078561,9.53529212 L6.53905792,9.53242818 L6.57312369,9.52670031 L6.61306805,9.52398711 L6.65572562,9.5181085 L6.7042618,9.51238063 L6.75264724,9.50680349 L6.80103268,9.50107562 L6.85228206,9.49836242 L6.89780356,9.49263455 L6.94332507,9.48977061 L6.98598264,9.48690668 L7.02577627,9.48404274 L7.12269788,9.48404274 L7.19098014,9.48690668 L7.25368526,9.48977061 L7.31623965,9.48977061 L7.36748902,9.49263455 L7.40743339,9.49534775 L7.43577128,9.49836242 L7.44436309,9.49836242 L7.45009096,9.47831487 L7.46712384,9.42706549 L7.48129279,9.36722431 L7.48702066,9.31326173 L7.47571565,9.25055661 L7.45009096,9.19357936 L7.41587447,9.14232998 L7.37035296,9.09967242 L7.31623965,9.06274272 L7.25639846,9.03711803 L7.18811621,9.01993441 L7.11410608,9.01435728 L7.03451881,9.01149334 L6.94905294,9.0086294 L6.86072313,9.0086294 L6.76968012,9.01149334 L6.67577317,9.01722121 L6.58457943,9.02566229 L6.49353642,9.03425409 L6.40520661,9.04570984 L6.31989147,9.05701485 L6.23728954,9.07118379 L6.16327941,9.08550347 L6.09499715,9.09967242 L6.03229203,9.11685603 L5.98104265,9.13388891 L5.94124902,9.15378573 L5.90989646,9.17081861 L6.11203003,8.48483063 L6.17458442,8.45920594 L6.23728954,8.43644519 L6.30557179,8.41639764 L6.37400478,8.40222869 L6.44228704,8.38805975 L6.51629717,8.376604 L6.5903073,8.36529899 L6.66718137,8.35957112 L6.74691937,8.35384325 L6.82937057,8.35097932 L6.91483644,8.34811538 L7.18811621,8.34811538 L7.28775102,8.35097932 L7.38738584,8.35384325 L7.46712384,8.35957112 L7.55258971,8.37374007 L7.64076879,8.39378762 L7.73196253,8.41941231 L7.82014161,8.45347807 L7.90545675,8.49342244 L7.99092262,8.54165714 L8.07066062,8.59577046 L8.14180681,8.65847558 L8.2043612,8.72675783 L8.26133845,8.8036319 L8.30399602,8.88909777 L8.33248464,8.98014078 L8.34966826,9.07691166 L8.34966826,9.18513829 L8.33248464,9.29894205 L8.04503593,10.8020561" id="Stroke-27" stroke="#FFFFFF" stroke-width="0.216" fill="none"></path>
                            <path d="M7.35889722,10.0590909 L7.35603328,10.0449219 L7.34472827,10.0306023 L7.32754466,10.0220105 L7.29920677,10.0162826 L7.26785421,10.0107055 L7.23077378,10.0078415 L7.14545864,10.0078415 L7.09993713,10.0107055 L7.05140096,10.0162826 L7.00587945,10.0220105 L6.96035795,10.0277383 L6.91770038,10.0334662 L6.87790674,10.042058 L6.84369025,10.0506498 L6.81233769,10.0590909 L6.79244087,10.064668 L6.76968012,10.0732598 L6.73832756,10.0847156 L6.70712573,10.0988845 L6.6700453,10.1159174 L6.63296487,10.135965 L6.59317124,10.1558618 L6.55609081,10.1786225 L6.51629717,10.2071112 L6.47936747,10.235449 L6.44515098,10.2698163 L6.41379842,10.303882 L6.38530979,10.3408117 L6.36541298,10.3807561 L6.3483801,10.4262776 L6.33978829,10.4719498 L6.33692435,10.56857 L6.3510933,10.6455948 L6.37973266,10.7024213 L6.41666235,10.7450789 L6.45931992,10.7737182 L6.5078561,10.7907511 L6.5533776,10.7993429 L6.59889911,10.8020561 L6.68421425,10.7993429 L6.76108831,10.7907511 L6.83524917,10.7792954 L6.90051676,10.7621118 L6.95749401,10.7423657 L7.01160732,10.716741 L7.05999276,10.6911163 L7.10280107,10.6597637 L7.13973077,10.6312751 L7.17394726,10.5972093 L7.20243589,10.5658568 L7.22519664,10.5316403 L7.24509345,10.4975745 L7.26212634,10.463358 L7.27644601,10.4320055 L7.28488709,10.4006529 L7.30779857,10.3182017 L7.32754466,10.224144 L7.34472827,10.133101 L7.35889722,10.0590909" id="Fill-28" stroke="none" fill="#D82331" fill-rule="evenodd"></path>
                            <path d="M2.0553404,11.4339308 L1.28102261,11.4339308 L1.92721696,7.6963439 L3.27371896,7.6963439 L3.40184241,9.91378384 L4.33277226,7.6963439 L5.73911545,7.6963439 L5.07860142,11.4339308 L4.30428363,11.4339308 L4.79401665,8.64144269 L4.76266409,8.64144269 L3.60397598,11.4339308 L2.73002337,11.4339308 L2.7242955,11.3172631 L2.70439868,11.0069029 L2.67892473,10.5658568 L2.62194748,9.54946106 L2.59632279,9.10253635 L2.57627524,8.77800721 L2.5706981,8.64144269 L2.52804053,8.64144269 L2.0553404,11.4339308" id="Fill-29" stroke="none" fill="#FFFFFF" fill-rule="evenodd"></path>
                            <path d="M2.0553404,11.4339308 L1.28102261,11.4339308 L1.92721696,7.6963439 L3.27371896,7.6963439 L3.40184241,9.91378384 L4.33277226,7.6963439 L5.73911545,7.6963439 L5.07860142,11.4339308 L4.30428363,11.4339308 L4.79401665,8.64144269 L4.76266409,8.64144269 L3.60397598,11.4339308 L2.73002337,11.4339308 L2.7242955,11.3172631 L2.70439868,11.0069029 L2.67892473,10.5658568 L2.62194748,9.54946106 L2.59632279,9.10253635 L2.57627524,8.77800721 L2.5706981,8.64144269 L2.52804053,8.64144269 L2.0553404,11.4339308" id="Stroke-30" stroke="#FFFFFF" stroke-width="0.216" fill="none"></path>
                            <path d="M22.1737354,10.8020561 L22.056917,11.4339308 L21.3424404,11.4339308 L21.3480175,11.3172631 L21.3510322,11.2147643 L21.3510322,11.138041 L21.3566093,11.1038245 L21.3196796,11.1464821 L21.2768713,11.1892904 L21.2256219,11.229084 L21.1687954,11.2690284 L21.1089542,11.3059581 L21.0405213,11.3400238 L20.9693751,11.3742403 L20.8983796,11.402729 L20.8213548,11.4254897 L20.7417675,11.4482505 L20.6618788,11.4625701 L20.5822915,11.4738752 L20.4996896,11.479603 L20.4199516,11.482467 L20.3430775,11.4738752 L20.2662035,11.4625701 L20.1638554,11.4369455 L20.0726617,11.4086076 L19.9930744,11.3713764 L19.9190643,11.3287188 L19.8563592,11.2833481 L19.8022459,11.231948 L19.7565736,11.1778346 L19.7169307,11.1208574 L19.6827142,11.0611669 L19.6570895,10.9984618 L19.6343288,10.9359074 L19.6200091,10.873353 L19.6087041,10.807784 L19.6001123,10.7423657 L19.5943844,10.6796606 L19.5943844,10.6171062 L19.6001123,10.5060156 L19.6172959,10.4006529 L19.6429206,10.3010181 L19.6798503,10.2042472 L19.7225079,10.1132042 L19.7766212,10.0306023 L19.8364624,9.951015 L19.9018807,9.87971807 L19.9758908,9.81414902 L20.0527649,9.75445857 L20.1352161,9.70049599 L20.2235459,9.65482375 L20.3118757,9.61503012 L20.4057826,9.58367756 L20.4996896,9.55805287 L20.5966112,9.54101999 L20.6021883,9.54101999 L20.6163573,9.53800532 L20.6362541,9.53529212 L20.6648935,9.53242818 L20.7018232,9.52670031 L20.7417675,9.52398711 L20.7844251,9.5181085 L20.8299466,9.51238063 L20.878332,9.50680349 L20.9295814,9.50107562 L20.9779669,9.49836242 L21.0263523,9.49263455 L21.0718738,9.48977061 L21.1118182,9.48690668 L21.1516118,9.48404274 L21.2512466,9.48404274 L21.3196796,9.48690668 L21.3849472,9.48977061 L21.4476523,9.48977061 L21.5019164,9.49263455 L21.5472871,9.49534775 L21.5729118,9.49836242 L21.5843676,9.49836242 L21.5899447,9.47831487 L21.5985365,9.42706549 L21.6071283,9.36722431 L21.6128562,9.31326173 L21.6014005,9.25055661 L21.5786397,9.19357936 L21.5415593,9.14232998 L21.4989017,9.09967242 L21.4476523,9.06274272 L21.3879619,9.03711803 L21.3252568,9.01993441 L21.2569745,9.01435728 L21.1772365,9.01149334 L21.0919214,9.0086294 L21.0035916,9.0086294 L20.9123978,9.01149334 L20.8184909,9.01722121 L20.7274479,9.02566229 L20.6362541,9.03425409 L20.548075,9.04570984 L20.4626092,9.05701485 L20.380158,9.07118379 L20.3061478,9.08550347 L20.2378656,9.09967242 L20.1751605,9.11685603 L20.1239111,9.13388891 L20.0839667,9.15378573 L20.0527649,9.17081861 L20.2521853,8.48483063 L20.3147396,8.45920594 L20.380158,8.43644519 L20.4455763,8.41639764 L20.5140093,8.40222869 L20.5850047,8.38805975 L20.6563017,8.376604 L20.7301611,8.36529899 L20.8071859,8.35957112 L20.8869239,8.35384325 L20.9693751,8.35097932 L21.051977,8.34811538 L21.3196796,8.34811538 L21.4162998,8.35097932 L21.5132214,8.35384325 L21.5928087,8.35957112 L21.6782745,8.37374007 L21.7664536,8.39378762 L21.8576473,8.41941231 L21.9459772,8.45347807 L22.0341562,8.49342244 L22.1194714,8.54165714 L22.1993601,8.59577046 L22.2703556,8.65847558 L22.3359246,8.72675783 L22.3929019,8.8036319 L22.4355594,8.88909777 L22.466912,8.98014078 L22.4868088,9.07691166 L22.4868088,9.18513829 L22.4724891,9.29894205 L22.1737354,10.8020561" id="Fill-31" stroke="none" fill="#FFFFFF" fill-rule="evenodd"></path>
                            <path id="Fill-32" stroke="none" fill="#FFFFFF" fill-rule="evenodd" d="M22.056917,11.4539783 L22.0739499,11.4369455 L22.1907683,10.8050708 L22.1565518,10.7993429 L22.0398841,11.4312176 L22.056917,11.4141847 L22.056917,11.4539783 L22.0710859,11.4512651 L22.0739499,11.4369455 L22.056917,11.4539783"></path>
                            <path id="Fill-33" stroke="none" fill="#FFFFFF" fill-rule="evenodd" d="M21.3252568,11.4339308 L21.3424404,11.4539783 L22.056917,11.4539783 L22.056917,11.4141847 L21.3424404,11.4141847 L21.3593225,11.4339308 L21.3252568,11.4339308 L21.3223928,11.4539783 L21.3424404,11.4539783 L21.3252568,11.4339308"></path>
                            <path id="Fill-34" stroke="none" fill="#FFFFFF" fill-rule="evenodd" d="M21.3707783,11.1151295 L21.3453043,11.0925195 L21.3336978,11.138041 L21.3309846,11.2147643 L21.3309846,11.3172631 L21.3252568,11.4339308 L21.3593225,11.4339308 L21.3650504,11.3172631 L21.3707783,11.2147643 L21.3679143,11.138041 L21.3679143,11.1151295 L21.3424404,11.0925195 L21.3707783,11.1151295"></path>
                            <path id="Fill-35" stroke="none" fill="#FFFFFF" fill-rule="evenodd" d="M20.2634903,11.479603 L20.2634903,11.479603 L20.3430775,11.490908 L20.4199516,11.4994998 L20.4996896,11.4966359 L20.5822915,11.490908 L20.6648935,11.479603 L20.7444807,11.4654341 L20.8242187,11.4425226 L20.9039567,11.4199126 L20.9751029,11.3912732 L21.0491131,11.3572075 L21.1173953,11.322991 L21.1772365,11.2833481 L21.2370777,11.2434037 L21.2883271,11.2034593 L21.3336978,11.1577871 L21.3707783,11.1151295 L21.3424404,11.0925195 L21.3053599,11.1351771 L21.2654156,11.1751214 L21.2141662,11.2147643 L21.1602036,11.2547087 L21.1003624,11.2889252 L21.0319294,11.322991 L20.9636472,11.3572075 L20.8926517,11.3856961 L20.8184909,11.4086076 L20.7387529,11.4312176 L20.6591656,11.4455373 L20.5822915,11.4568423 L20.4996896,11.4625701 L20.4199516,11.4654341 L20.3430775,11.4568423 L20.2692181,11.4455373 L20.2634903,11.479603"></path>
                            <path d="M19.5744876,10.6171062 L19.5744876,10.6171062 L19.5773515,10.6796606 L19.5830794,10.7423657 L19.5915205,10.8106479 L19.6029762,10.8760663 L19.6172959,10.9386206 L19.6399059,11.0041897 L19.6656814,11.0697587 L19.7026111,11.1294492 L19.7425554,11.1892904 L19.7880769,11.2434037 L19.8449034,11.2973663 L19.9104725,11.3430385 L19.9844826,11.38856 L20.0669338,11.4254897 L20.1609915,11.4539783 L20.2634903,11.479603 L20.2692181,11.4455373 L20.1665686,11.4199126 L20.0783896,11.3912732 L20.0015155,11.3543435 L19.9275054,11.3145499 L19.8676642,11.2690284 L19.8164148,11.2204922 L19.7708933,11.1663789 L19.7310997,11.1124163 L19.6998979,11.0525751 L19.6742732,10.9928847 L19.6513617,10.9330435 L19.637042,10.8703384 L19.625737,10.8050708 L19.6172959,10.7423657 L19.611568,10.6796606 L19.6142812,10.6171062 L19.5744876,10.6171062" id="Fill-36" stroke="none" fill="#FFFFFF" fill-rule="evenodd"></path>
                            <path d="M20.5966112,9.52398711 L20.5966112,9.52398711 L20.4969764,9.54101999 L20.4000548,9.56664468 L20.3061478,9.5978465 L20.2151048,9.63779087 L20.126775,9.68331238 L20.0413091,9.74013889 L19.9644351,9.80013081 L19.8904249,9.86841307 L19.8221427,9.93940853 L19.7623015,10.0192973 L19.705475,10.1046124 L19.6626667,10.1985193 L19.625737,10.295441 L19.6001123,10.3979397 L19.5830794,10.5060156 L19.5744876,10.6171062 L19.6142812,10.6171062 L19.6172959,10.5060156 L19.6343288,10.4035169 L19.6599535,10.306746 L19.6968832,10.2099751 L19.7395408,10.1216453 L19.7907901,10.042058 L19.8504806,9.96232001 L19.9131857,9.89117382 L19.9873466,9.8284687 L20.0640699,9.76877825 L20.1438079,9.71752887 L20.2321377,9.67185663 L20.3174528,9.632063 L20.4113598,9.60071044 L20.5025535,9.57508575 L20.5966112,9.55805287 L20.5966112,9.52398711" id="Fill-37" stroke="none" fill="#FFFFFF" fill-rule="evenodd"></path>
                            <path id="Fill-38" stroke="none" fill="#FFFFFF" fill-rule="evenodd" d="M21.1829644,9.46414592 L21.1516118,9.46414592 L21.1118182,9.46972306 L21.0718738,9.47273773 L21.0263523,9.47545093 L20.9779669,9.48102807 L20.9295814,9.48404274 L20.878332,9.48977061 L20.8299466,9.49534775 L20.7844251,9.50107562 L20.7417675,9.50680349 L20.7018232,9.50966743 L20.6648935,9.5153953 L20.6362541,9.5181085 L20.6134934,9.52097244 L20.6021883,9.52398711 L20.5966112,9.52398711 L20.5966112,9.55805287 L20.6021883,9.55805287 L20.6192212,9.55518893 L20.6362541,9.552325 L20.6648935,9.54946106 L20.7018232,9.54373319 L20.7417675,9.54101999 L20.7844251,9.53529212 L20.8299466,9.52956425 L20.878332,9.52398711 L20.9295814,9.5181085 L20.9779669,9.5153953 L21.0263523,9.50966743 L21.0718738,9.50680349 L21.1118182,9.50393956 L21.1829644,9.50393956 L21.1829644,9.46414592"></path>
                            <path id="Fill-39" stroke="none" fill="#FFFFFF" fill-rule="evenodd" d="M21.567184,9.49534775 L21.5843676,9.48102807 L21.5729118,9.48102807 L21.5472871,9.47831487 L21.5019164,9.47545093 L21.4476523,9.46972306 L21.3196796,9.46972306 L21.2512466,9.46414592 L21.1829644,9.46414592 L21.1829644,9.50393956 L21.3196796,9.50393956 L21.3849472,9.50966743 L21.5019164,9.50966743 L21.5472871,9.51238063 L21.5729118,9.5153953 L21.5843676,9.5153953 L21.6014005,9.50107562 L21.5843676,9.5153953 L21.5985365,9.5181085 L21.6014005,9.50107562 L21.567184,9.49534775"></path>
                            <path id="Fill-40" stroke="none" fill="#FFFFFF" fill-rule="evenodd" d="M21.5958233,9.31326173 L21.5928087,9.31326173 L21.5899447,9.36722431 L21.5815036,9.42420156 L21.5729118,9.47545093 L21.567184,9.49534775 L21.6014005,9.50107562 L21.6071283,9.48102807 L21.6155694,9.42992943 L21.6241612,9.36722431 L21.632753,9.31326173 L21.5958233,9.31326173"></path>
                            <path id="Fill-41" stroke="none" fill="#FFFFFF" fill-rule="evenodd" d="M21.2569745,9.03139016 L21.2569745,9.03425409 L21.3223928,9.03711803 L21.382234,9.05415091 L21.4392113,9.0797756 L21.4875967,9.11399209 L21.5272396,9.15378573 L21.5616068,9.20217117 L21.5843676,9.25342055 L21.5958233,9.31326173 L21.6298891,9.31326173 L21.6184333,9.24784341 L21.5958233,9.18513829 L21.555879,9.13102498 L21.5103574,9.08550347 L21.4562441,9.04570984 L21.3936897,9.01993441 L21.3281207,9.00290153 L21.2569745,8.99430973 L21.2569745,9.03139016"></path>
                            <path id="Fill-42" stroke="none" fill="#FFFFFF" fill-rule="evenodd" d="M20.035732,9.16810541 L20.0640699,9.18513829 L20.0925585,9.17081861 L20.1296389,9.15092179 L20.1780244,9.13388891 L20.2405788,9.11685603 L20.308861,9.10253635 L20.3830219,9.08836741 L20.4656238,9.07404773 L20.548075,9.06274272 L20.6362541,9.05128697 L20.7274479,9.0428459 L20.8184909,9.03425409 L20.9123978,9.02852622 L21.1772365,9.02852622 L21.2569745,9.03139016 L21.2569745,8.99717366 L21.1772365,8.99430973 L21.0919214,8.98873259 L21.0035916,8.98873259 L20.9123978,8.99430973 L20.8184909,9.0000376 L20.7274479,9.0086294 L20.6362541,9.01722121 L20.548075,9.02852622 L20.4597452,9.03998196 L20.377294,9.05415091 L20.3032839,9.06847059 L20.2348509,9.08263953 L20.1722965,9.09967242 L20.1181832,9.11685603 L20.0755256,9.13675285 L20.0413091,9.15664966 L20.0699485,9.17368254 L20.035732,9.16810541"></path>
                            <path id="Fill-43" stroke="none" fill="#FFFFFF" fill-rule="evenodd" d="M20.2464574,8.46779775 L20.2348509,8.48196669 L20.035732,9.16810541 L20.0699485,9.17368254 L20.2692181,8.48769456 L20.2577624,8.50186351 L20.2464574,8.46779775 L20.2378656,8.47051095 L20.2348509,8.48196669 L20.2464574,8.46779775"></path>
                            <path id="Fill-44" stroke="none" fill="#FFFFFF" fill-rule="evenodd" d="M21.5132214,8.33681037 L21.5132214,8.33681037 L21.4162998,8.3310825 L21.3196796,8.32821856 L21.051977,8.32821856 L20.9693751,8.33394643 L20.8869239,8.33681037 L20.8071859,8.34253824 L20.7301611,8.34811538 L20.6534377,8.35957112 L20.5822915,8.37087613 L20.5109946,8.38519581 L20.4427123,8.39951549 L20.3744301,8.41941231 L20.308861,8.44202233 L20.2464574,8.46779775 L20.2577624,8.50186351 L20.3204675,8.47623882 L20.3857351,8.45347807 L20.4484402,8.43358125 L20.5167225,8.41941231 L20.5880194,8.40509263 L20.6591656,8.39378762 L20.7301611,8.38233188 L20.8071859,8.376604 L20.8869239,8.37087613 L20.9693751,8.36816293 L21.3196796,8.36816293 L21.4162998,8.37087613 L21.5132214,8.37087613 L21.5132214,8.33681037"></path>
                            <path d="M22.489522,9.30180599 L22.489522,9.30180599 L22.5038417,9.18513829 L22.5038417,9.07691166 L22.4839449,8.97727685 L22.4525923,8.8833699 L22.4070708,8.79519082 L22.3499428,8.71545282 L22.2816606,8.64430663 L22.2106651,8.58160151 L22.1280632,8.5274882 L22.0425973,8.47623882 L21.9515543,8.43644519 L21.8633752,8.40222869 L21.7694683,8.376604 L21.6811385,8.35670719 L21.5928087,8.34253824 L21.5132214,8.33681037 L21.5132214,8.37087613 L21.5928087,8.376604 L21.6754106,8.39092368 L21.7637404,8.4108205 L21.8519195,8.43644519 L21.9402493,8.47051095 L22.0255644,8.51045532 L22.1110303,8.55597682 L22.1877536,8.61009013 L22.2590505,8.67279525 L22.3216049,8.73821358 L22.3785822,8.81207297 L22.4185265,8.89482564 L22.4497284,8.98300472 L22.4696252,9.07691166 L22.4696252,9.18513829 L22.4554562,9.29622885 L22.489522,9.30180599" id="Fill-45" stroke="none" fill="#FFFFFF" fill-rule="evenodd"></path>
                            <path id="Fill-46" stroke="none" fill="#FFFFFF" fill-rule="evenodd" d="M22.1907683,10.8050708 L22.1907683,10.8050708 L22.489522,9.30180599 L22.4554562,9.29622885 L22.1565518,10.7993429 L22.1907683,10.8050708"></path>
                            <path d="M21.484582,10.0590909 L21.4790049,10.042058 L21.4676999,10.0277383 L21.4476523,10.0192973 L21.4193144,10.0107055 L21.3879619,10.0078415 L21.3510322,10.0049776 L21.3080731,10.0049776 L21.2654156,10.0078415 L21.2198941,10.0135694 L21.1745233,10.0192973 L21.1288511,10.0248744 L21.0861935,10.0306023 L21.0435359,10.0391941 L21.0064555,10.0449219 L20.9693751,10.053363 L20.9410372,10.0590909 L20.9209896,10.0619548 L20.8983796,10.0705466 L20.8697402,10.0789877 L20.8383877,10.0902927 L20.801458,10.1074763 L20.7672415,10.1245092 L20.7274479,10.1445568 L20.6905182,10.1701815 L20.6534377,10.1958061 L20.6163573,10.2271587 L20.5850047,10.2583605 L20.5536522,10.295441 L20.528329,10.3350839 L20.5082814,10.3780429 L20.4912485,10.4234137 L20.4826567,10.4719498 L20.4797928,10.56857 L20.4939617,10.6455948 L20.5167225,10.7024213 L20.550939,10.7450789 L20.5935965,10.7737182 L20.6421327,10.7907511 L20.6905182,10.7993429 L20.7387529,10.8020561 L20.8242187,10.7993429 L20.9039567,10.7907511 L20.9779669,10.7764314 L21.0435359,10.7565346 L21.106241,10.7337739 L21.1602036,10.7081492 L21.211453,10.6796606 L21.2569745,10.6455948 L21.2967681,10.6140915 L21.3309846,10.5771618 L21.3623372,10.5429453 L21.3879619,10.5060156 L21.407708,10.4719498 L21.4220276,10.4377333 L21.4334834,10.4035169 L21.4419245,10.372315 L21.4533802,10.2924263 L21.4676999,10.2099751 L21.4790049,10.1302371 L21.484582,10.0590909" id="Fill-47" stroke="none" fill="#F2AD3D" fill-rule="evenodd"></path>
                            <path d="M22.387174,11.4339308 L23.1899804,11.4339308 L23.4775798,9.81414902 L23.4887341,9.75159463 L23.505767,9.68888951 L23.5231014,9.62633513 L23.5457114,9.56378074 L23.5743507,9.50107562 L23.6084165,9.44138517 L23.6453462,9.38440792 L23.6910184,9.33029461 L23.7422678,9.28190917 L23.7990943,9.23638766 L23.8645126,9.19357936 L23.9386735,9.1595136 L24.0211247,9.13102498 L24.1123184,9.10826422 L24.2119533,9.09123134 L24.3228931,9.08550347 L24.3940393,9.08550347 L24.5221627,8.35384325 L24.4424247,8.35957112 L24.3657014,8.36816293 L24.2944045,8.38233188 L24.2261222,8.40222869 L24.1635678,8.42498944 L24.1037266,8.45347807 L24.0467494,8.48483063 L23.9927868,8.51904712 L23.9415374,8.55884076 L23.893152,8.59863439 L23.8474798,8.64430663 L23.8019583,8.68982814 L23.7593007,8.73821358 L23.7166431,8.79232689 L23.6739855,8.84342553 L23.6340412,8.90040278 L23.7193563,8.38519581 L22.9195646,8.38519581 L22.387174,11.4339308" id="Fill-48" stroke="none" fill="#FFFFFF" fill-rule="evenodd"></path>
                            <path d="M22.387174,11.4339308 L23.1899804,11.4339308 L23.4775798,9.81414902 L23.4887341,9.75159463 L23.505767,9.68888951 L23.5231014,9.62633513 L23.5457114,9.56378074 L23.5743507,9.50107562 L23.6084165,9.44138517 L23.6453462,9.38440792 L23.6910184,9.33029461 L23.7422678,9.28190917 L23.7990943,9.23638766 L23.8645126,9.19357936 L23.9386735,9.1595136 L24.0211247,9.13102498 L24.1123184,9.10826422 L24.2119533,9.09123134 L24.3228931,9.08550347 L24.3940393,9.08550347 L24.5221627,8.35384325 L24.4424247,8.35957112 L24.3657014,8.36816293 L24.2944045,8.38233188 L24.2261222,8.40222869 L24.1635678,8.42498944 L24.1037266,8.45347807 L24.0467494,8.48483063 L23.9927868,8.51904712 L23.9415374,8.55884076 L23.893152,8.59863439 L23.8474798,8.64430663 L23.8019583,8.68982814 L23.7593007,8.73821358 L23.7166431,8.79232689 L23.6739855,8.84342553 L23.6340412,8.90040278 L23.7193563,8.38519581 L22.9195646,8.38519581 L22.387174,11.4339308" id="Stroke-49" stroke="#FFFFFF" stroke-width="0.216" fill="none"></path>
                            <path d="M14.8488429,11.4339308 L15.665969,11.4339308 L15.939098,9.81414902 L15.950403,9.75159463 L15.9790424,9.632063 L15.9989392,9.57508575 L16.0216999,9.5181085 L16.0501886,9.46414592 L16.0842543,9.41274581 L16.1241987,9.36451111 L16.1697202,9.3217028 L16.2209696,9.27919597 L16.283524,9.24497947 L16.351957,9.21362691 L16.431695,9.18800222 L16.519874,9.16524147 L16.6166449,9.15092179 L16.7277355,9.14232998 L16.7361765,9.14232998 L16.7476323,9.14519392 L16.7618012,9.14805786 L16.7761209,9.14805786 L16.7904406,9.15092179 L16.8017456,9.15378573 L16.8103374,9.15664966 L16.8130506,9.15664966 L16.8160653,9.14519392 L16.8245064,9.11112816 L16.8358114,9.05987878 L16.850131,8.99717366 L16.8700279,8.92316353 L16.8899247,8.84342553 L16.9157001,8.76383826 L16.9413248,8.68410026 L16.9639348,8.62998695 L16.9925742,8.57587364 L17.0209121,8.52191106 L17.0494007,8.47337489 L17.0750254,8.43071732 L17.0949222,8.39665155 L17.1092419,8.376604 L17.114819,8.36816293 L17.1119551,8.36816293 L17.1004993,8.36529899 L17.0864811,8.36243506 L17.0665843,8.35957112 L17.0465367,8.35957112 L17.023776,8.35670719 L17.0038792,8.35384325 L16.9839824,8.35384325 L16.8956525,8.35957112 L16.8160653,8.36816293 L16.7419044,8.38233188 L16.6736222,8.39951549 L16.6082038,8.42212551 L16.5483627,8.45076487 L16.4942493,8.47910276 L16.443,8.51331925 L16.3946145,8.55024895 L16.349093,8.59290652 L16.3064354,8.63571482 L16.2637779,8.68410026 L16.2209696,8.7324857 L16.1811759,8.78659902 L16.1385184,8.84342553 L16.0957101,8.90040278 L16.1982088,8.38519581 L15.3812335,8.38519581 L14.8488429,11.4339308" id="Fill-50" stroke="none" fill="#FFFFFF" fill-rule="evenodd"></path>
                            <path d="M14.8488429,11.4339308 L15.665969,11.4339308 L15.939098,9.81414902 L15.950403,9.75159463 L15.9790424,9.632063 L15.9989392,9.57508575 L16.0216999,9.5181085 L16.0501886,9.46414592 L16.0842543,9.41274581 L16.1241987,9.36451111 L16.1697202,9.3217028 L16.2209696,9.27919597 L16.283524,9.24497947 L16.351957,9.21362691 L16.431695,9.18800222 L16.519874,9.16524147 L16.6166449,9.15092179 L16.7277355,9.14232998 L16.7361765,9.14232998 L16.7476323,9.14519392 L16.7618012,9.14805786 L16.7761209,9.14805786 L16.7904406,9.15092179 L16.8017456,9.15378573 L16.8103374,9.15664966 L16.8130506,9.15664966 L16.8160653,9.14519392 L16.8245064,9.11112816 L16.8358114,9.05987878 L16.850131,8.99717366 L16.8700279,8.92316353 L16.8899247,8.84342553 L16.9157001,8.76383826 L16.9413248,8.68410026 L16.9639348,8.62998695 L16.9925742,8.57587364 L17.0209121,8.52191106 L17.0494007,8.47337489 L17.0750254,8.43071732 L17.0949222,8.39665155 L17.1092419,8.376604 L17.114819,8.36816293 L17.1119551,8.36816293 L17.1004993,8.36529899 L17.0864811,8.36243506 L17.0665843,8.35957112 L17.0465367,8.35957112 L17.023776,8.35670719 L17.0038792,8.35384325 L16.9839824,8.35384325 L16.8956525,8.35957112 L16.8160653,8.36816293 L16.7419044,8.38233188 L16.6736222,8.39951549 L16.6082038,8.42212551 L16.5483627,8.45076487 L16.4942493,8.47910276 L16.443,8.51331925 L16.3946145,8.55024895 L16.349093,8.59290652 L16.3064354,8.63571482 L16.2637779,8.68410026 L16.2209696,8.7324857 L16.1811759,8.78659902 L16.1385184,8.84342553 L16.0957101,8.90040278 L16.1982088,8.38519581 L15.3812335,8.38519581 L14.8488429,11.4339308" id="Stroke-51" stroke="#FFFFFF" stroke-width="0.216" fill="none"></path>
                        </g>
                    </g>
                </g>
            </g>
        </g>
    </g>
</svg>