<?xml version="1.0" encoding="UTF-8" standalone="no"?>
<svg width="31px" height="25px" viewBox="0 0 31 25" version="1.1" xmlns="http://www.w3.org/2000/svg" xmlns:xlink="http://www.w3.org/1999/xlink" xmlns:sketch="http://www.bohemiancoding.com/sketch/ns">
    <!-- Generator: Sketch 3.4 (15575) - http://www.bohemiancoding.com/sketch -->
    <title>visa</title>
    <desc>Created with Sketch.</desc>
    <defs></defs>
    <g id="Page-1" stroke="none" stroke-width="1" fill="none" fill-rule="evenodd" sketch:type="MSPage">
        <g id="visa" sketch:type="MSArtboardGroup">
            <g sketch:type="MSLayerGroup">
                <rect id="box" stroke-opacity="0" stroke="#000000" fill-opacity="0" fill="#ECECEC" sketch:type="MSShapeGroup" x="0" y="0" width="31" height="25"></rect>
                <g id="brand" transform="translate(0.250000, 7.699997)" sketch:type="MSShapeGroup">
                    <path d="M12.93325,9.585641 L10.5,9.585641 L12.02075,0 L14.45425,0 L12.93325,9.585641" id="Fill-1" fill="#005B9C"></path>
                    <path d="M8.44675,0 L6.12675,6.59282051 L5.8525,5.17307693 L5.85275,5.17358975 L5.03375,0.863333334 C5.03375,0.863333334 4.935,0 3.8795,0 L0.04475,0 L0,0.162051282 C0,0.162051282 1.173,0.412307693 2.545,1.25820513 L4.659,9.585641 L7.19425,9.585641 L11.0655,0 L8.44675,0" id="Fill-2" fill="#005B9C"></path>
                    <path d="M24.9945,6.19487179 L26.27325,2.6074359 L26.9925,6.19487179 L24.9945,6.19487179 L24.9945,6.19487179 L24.9945,6.19487179 L24.9945,6.19487179 L24.9945,6.19487179 Z M27.672,9.585641 L29.90625,9.585641 L27.95825,0 L26.002,0 C25.0985,0 24.87875,0.714358975 24.87875,0.714358975 L21.25,9.585641 L23.786,9.585641 L24.2935,8.16205128 L27.38675,8.16205128 L27.672,9.585641 L27.672,9.585641 L27.672,9.585641 Z" id="Fill-3" fill="#005B9C"></path>
                    <path d="M21.4275,2.47666666 L21.7745,0.417948718 C21.7745,0.417948718 20.703,0 19.586,0 C18.3785,0 15.51125,0.541538462 15.51125,3.17333334 C15.51125,5.65 18.8765,5.68076923 18.8765,6.98102565 C18.8765,8.28128205 15.858,8.04897435 14.862,7.22871795 L14.5,9.38076927 C14.5,9.38076927 15.58625,9.92230773 17.24675,9.92230773 C18.907,9.92230773 21.41225,9.04 21.41225,6.64051282 C21.41225,4.14820513 18.0165,3.91615385 18.0165,2.8325641 C18.0165,1.74897435 20.38625,1.88820513 21.4275,2.47666666" id="Fill-4" fill="#005B9C"></path>
                    <path d="M5.85275,5.17358975 L5.03375,0.863333334 C5.03375,0.863333334 4.935,0 3.8795,0 L0.04475,0 L0,0.162051282 C0,0.162051282 1.84325,0.554102565 3.6115,2.02179487 C5.3015,3.42487179 5.85275,5.17358975 5.85275,5.17358975" id="Fill-5" fill="#EF9F3F"></path>
                </g>
            </g>
        </g>
    </g>
</svg>