<?xml version="1.0" encoding="UTF-8" standalone="no"?>
<svg width="377px" height="67px" viewBox="0 0 377 67" version="1.1" xmlns="http://www.w3.org/2000/svg" xmlns:xlink="http://www.w3.org/1999/xlink" xmlns:sketch="http://www.bohemiancoding.com/sketch/ns">
    <!-- Generator: Sketch 3.4 (15575) - http://www.bohemiancoding.com/sketch -->
    <title>paypal-demo</title>
    <desc>Created with Sketch.</desc>
    <defs></defs>
    <g id="Page-1" stroke="none" stroke-width="1" fill="none" fill-rule="evenodd" sketch:type="MSPage">
        <g id="paypal-demo" sketch:type="MSLayerGroup">
            <path d="M352.754,42.971 C353.8,36.41 359.838,31.133 366.398,31.133 C372.959,31.133 377.285,36.41 376.239,42.971 C375.193,49.532 369.155,54.714 362.642,54.714 C356.129,54.714 351.708,49.532 352.754,42.971 L352.754,42.971 Z M356.557,42.923 C355.844,47.487 358.506,51.195 363.213,51.195 C367.92,51.195 371.723,47.487 372.436,42.923 C373.149,38.407 370.535,34.651 365.828,34.651 C361.121,34.651 357.27,38.407 356.557,42.923 L356.557,42.923 Z" id="Shape" fill="#99999A" sketch:type="MSShapeGroup"></path>
            <path d="M325.799,34.176 L325.894,34.176 C327.415,32.322 329.507,31.133 331.789,31.133 C334.404,31.133 336.543,32.512 337.351,34.841 C339.063,32.369 341.963,31.133 344.673,31.133 C350.378,31.133 351.043,35.792 350.282,40.499 L348.143,54.096 L344.34,54.096 L346.384,41.117 C346.859,38.217 347.239,34.651 343.341,34.651 C338.967,34.651 337.826,38.882 337.256,42.258 L335.401,54.096 L331.598,54.096 L333.595,41.402 C334.023,38.645 334.356,34.651 330.695,34.651 C326.226,34.651 325.038,39.168 324.467,42.543 L322.661,54.095 L318.858,54.095 L322.376,31.751 L326.179,31.751 L325.799,34.176 L325.799,34.176 Z" id="Shape" fill="#99999A" sketch:type="MSShapeGroup"></path>
            <path d="M300.127,43.732 C299.509,47.868 301.934,51.196 306.26,51.196 C309.493,51.196 311.87,49.247 313.772,46.585 L316.719,48.439 C313.961,52.433 309.968,54.714 305.404,54.714 C298.748,54.714 295.278,49.627 296.276,43.209 C297.322,36.601 302.076,31.133 309.064,31.133 C316.243,31.133 319.095,37.076 317.669,43.732 L300.127,43.732 L300.127,43.732 Z M314.151,40.499 C314.151,37.266 311.869,34.651 308.541,34.651 C305.261,34.651 301.79,37.266 300.792,40.499 L314.151,40.499 L314.151,40.499 Z" id="Shape" fill="#99999A" sketch:type="MSShapeGroup"></path>
            <path d="M271.413,18.249 L278.164,18.249 C283.536,18.249 287.815,18.962 291.475,22.575 C294.993,26.093 296.087,30.895 295.279,36.219 C294.423,41.448 291.808,46.06 287.292,49.578 C282.395,53.381 278.021,54.094 272.412,54.094 L265.756,54.094 L271.413,18.249 L271.413,18.249 Z M273.219,50.387 C277.593,50.387 281.349,49.769 285.152,46.679 C288.527,43.921 290.619,40.166 291.285,36.172 C291.903,32.083 290.952,28.137 288.338,25.428 C285.486,22.528 281.967,21.957 277.736,21.957 L274.836,21.957 L270.319,50.387 L273.219,50.387 L273.219,50.387 Z" id="Shape" fill="#99999A" sketch:type="MSShapeGroup"></path>
            <path d="M237.423,1.731 L229.474,52.302 C229.32,53.282 230.077,54.167 231.069,54.167 L239.064,54.167 C240.388,54.167 241.515,53.204 241.722,51.896 L249.56,2.233 C249.715,1.253 248.957,0.367 247.965,0.367 L239.018,0.367 C238.223,0.367 237.547,0.945 237.423,1.731 L237.423,1.731 Z" id="Shape" fill="#009CDE" sketch:type="MSShapeGroup"></path>
            <path d="M226.492,18.282 L217.218,18.282 C216.423,18.282 215.747,18.86 215.623,19.645 L215.215,22.238 L214.567,21.299 C212.558,18.383 208.082,17.409 203.612,17.409 C193.366,17.409 184.613,25.173 182.91,36.064 C182.023,41.497 183.282,46.689 186.362,50.313 C189.192,53.642 193.231,55.028 198.043,55.028 C206.302,55.028 210.883,49.722 210.883,49.722 L210.469,52.3 C210.314,53.28 211.071,54.167 212.064,54.167 L220.416,54.167 C221.74,54.167 222.867,53.204 223.074,51.896 L228.088,20.148 C228.242,19.168 227.484,18.282 226.492,18.282 L226.492,18.282 Z M213.567,36.334 C212.671,41.633 208.465,45.19 203.099,45.19 C200.409,45.19 198.256,44.325 196.871,42.687 C195.499,41.063 194.983,38.749 195.418,36.173 C196.253,30.921 200.527,27.249 205.812,27.249 C208.445,27.249 210.584,28.122 211.995,29.776 C213.416,31.441 213.974,33.77 213.567,36.334 L213.567,36.334 Z" id="Shape" fill="#009CDE" sketch:type="MSShapeGroup"></path>
            <path d="M168.603,0.367 L149.235,0.367 C147.911,0.367 146.783,1.331 146.577,2.639 L138.745,52.302 C138.59,53.282 139.348,54.168 140.34,54.168 L150.278,54.168 C151.205,54.168 151.994,53.494 152.139,52.578 L154.36,38.498 C154.566,37.19 155.694,36.226 157.018,36.226 L163.147,36.226 C175.904,36.226 183.267,30.052 185.191,17.815 C186.057,12.463 185.226,8.258 182.72,5.315 C179.964,2.078 175.082,0.367 168.603,0.367 L168.603,0.367 Z M170.838,18.505 C169.78,25.457 164.47,25.457 159.334,25.457 L156.412,25.457 L158.461,12.477 C158.585,11.692 159.261,11.114 160.056,11.114 L161.396,11.114 C164.892,11.114 168.194,11.114 169.896,13.106 C170.915,14.298 171.223,16.064 170.838,18.505 L170.838,18.505 Z" id="Shape" fill="#009CDE" sketch:type="MSShapeGroup"></path>
            <path d="M137.747,18.282 L128.425,18.282 C127.533,18.282 126.7,18.724 126.199,19.462 L113.34,38.401 L107.891,20.202 C107.55,19.063 106.502,18.282 105.313,18.282 L96.149,18.282 C95.043,18.282 94.264,19.371 94.621,20.418 L104.885,50.547 L95.231,64.169 C94.473,65.238 95.238,66.717 96.548,66.717 L105.861,66.717 C106.744,66.717 107.57,66.284 108.073,65.559 L139.074,20.817 C139.816,19.746 139.05,18.282 137.747,18.282 L137.747,18.282 Z" id="Shape" fill="#003087" sketch:type="MSShapeGroup"></path>
            <path d="M88.352,18.282 L79.078,18.282 C78.283,18.282 77.607,18.86 77.483,19.645 L77.075,22.238 L76.427,21.299 C74.418,18.383 69.942,17.409 65.472,17.409 C55.226,17.409 46.473,25.173 44.77,36.064 C43.883,41.497 45.142,46.689 48.222,50.313 C51.052,53.642 55.091,55.028 59.903,55.028 C68.162,55.028 72.742,49.722 72.742,49.722 L72.328,52.3 C72.173,53.28 72.93,54.167 73.923,54.167 L82.275,54.167 C83.599,54.167 84.726,53.204 84.933,51.896 L89.947,20.148 C90.101,19.168 89.344,18.282 88.352,18.282 L88.352,18.282 Z M75.427,36.334 C74.531,41.633 70.325,45.19 64.959,45.19 C62.269,45.19 60.116,44.325 58.731,42.687 C57.359,41.063 56.843,38.749 57.278,36.173 C58.113,30.921 62.387,27.249 67.671,27.249 C70.304,27.249 72.443,28.122 73.854,29.776 C75.275,31.441 75.834,33.77 75.427,36.334 L75.427,36.334 Z" id="Shape" fill="#003087" sketch:type="MSShapeGroup"></path>
            <path d="M30.463,0.367 L11.094,0.367 C9.77,0.367 8.642,1.331 8.436,2.639 L0.604,52.301 C0.449,53.281 1.207,54.167 2.199,54.167 L11.447,54.167 C12.771,54.167 13.899,53.203 14.105,51.895 L16.218,38.497 C16.424,37.189 17.552,36.225 18.876,36.225 L25.005,36.225 C37.762,36.225 45.125,30.051 47.049,17.814 C47.915,12.462 47.084,8.257 44.578,5.314 C41.824,2.078 36.942,0.367 30.463,0.367 L30.463,0.367 Z M32.698,18.505 C31.64,25.457 26.33,25.457 21.194,25.457 L18.272,25.457 L20.321,12.477 C20.445,11.692 21.121,11.114 21.916,11.114 L23.255,11.114 C26.751,11.114 30.053,11.114 31.755,13.106 C32.774,14.298 33.083,16.064 32.698,18.505 L32.698,18.505 Z" id="Shape" fill="#003087" sketch:type="MSShapeGroup"></path>
        </g>
    </g>
</svg>
