<?xml version="1.0" encoding="UTF-8" standalone="no"?>
<svg width="81px" height="22px" viewBox="0 0 81 22" version="1.1" xmlns="http://www.w3.org/2000/svg" xmlns:xlink="http://www.w3.org/1999/xlink" xmlns:sketch="http://www.bohemiancoding.com/sketch/ns">
    <!-- Generator: Sketch 3.4 (15575) - http://www.bohemiancoding.com/sketch -->
    <title>paypal</title>
    <desc>Created with Sketch.</desc>
    <defs></defs>
    <g id="Page-1" stroke="none" stroke-width="1" fill="none" fill-rule="evenodd" sketch:type="MSPage">
        <g id="paypal" sketch:type="MSLayerGroup">
            <path d="M76.4423017,0.460661639 L73.8765088,16.7832569 C73.826912,17.0993313 74.0713232,17.3853534 74.3913906,17.3853534 L76.9716843,17.3853534 C77.3991412,17.3853534 77.762921,17.0743227 77.8295404,16.6521196 L80.3593967,0.622901961 C80.4092036,0.306617395 80.1647924,0.020595274 79.8445148,0.020595274 L76.9569733,0.020595274 C76.700373,0.020595274 76.4820211,0.207213675 76.4423017,0.460661639" id="l" fill="#009ADA" sketch:type="MSShapeGroup"></path>
            <path d="M68.7424012,11.6293947 C68.4532268,13.3396431 67.0956199,14.4879346 65.3639356,14.4879346 C64.4955716,14.4879346 63.8005862,14.2084274 63.3537949,13.6798854 C62.9109965,13.1557566 62.7443429,12.4088628 62.884727,11.5772761 C63.1543569,9.88215892 64.53382,8.69708999 66.2392348,8.69708999 C67.0893152,8.69708999 67.7794671,8.978909 68.2348748,9.51270485 C68.6934349,10.0500734 68.8737486,10.8018009 68.7424012,11.6293947 L68.7424012,11.6293947 L68.7424012,11.6293947 Z M72.913995,5.80303368 L69.9207451,5.80303368 C69.6641448,5.80303368 69.4457929,5.98944193 69.4060734,6.2428899 L69.2743056,7.07994067 L69.0652006,6.77668577 C68.4168698,5.835818 66.9720483,5.52142484 65.5293283,5.52142484 C62.2225259,5.52142484 59.3974007,8.02732328 58.847633,11.5423901 C58.5614007,13.2957204 58.967632,14.9715032 59.9618794,16.1412308 C60.8754269,17.2157576 62.1788135,17.6629693 63.7318653,17.6629693 C66.3974822,17.6629693 67.8759286,15.9506194 67.8759286,15.9506194 L67.7424797,16.7826265 C67.6922524,17.098911 67.9366637,17.3853534 68.2571513,17.3853534 L70.9528205,17.3853534 C71.3800674,17.3853534 71.7438472,17.0743227 71.8106768,16.6523298 L73.4286667,6.40513021 C73.4786838,6.08884565 73.2342725,5.80303368 72.913995,5.80303368 L72.913995,5.80303368 L72.913995,5.80303368 Z" id="a2" fill="#009ADA" sketch:type="MSShapeGroup"></path>
            <path d="M54.9511332,5.87469683 C54.60963,8.11874108 52.8955988,8.11874108 51.2380995,8.11874108 L50.2951302,8.11874108 L50.9564907,3.92928406 C50.9966305,3.67604626 51.2149824,3.48942786 51.4713725,3.48942786 L51.9036632,3.48942786 C53.0319899,3.48942786 54.0976903,3.48942786 54.6472479,4.13229462 C54.9759316,4.51708999 55.0753353,5.08703268 54.9511332,5.87469683 L54.9511332,5.87469683 L54.9511332,5.87469683 Z M54.2298784,0.020595274 L47.978372,0.020595274 C47.550915,0.020595274 47.1871352,0.331625943 47.1205158,0.753829059 L44.5927612,16.7830468 C44.5427441,17.0991211 44.7873655,17.3853534 45.1074329,17.3853534 L48.3148316,17.3853534 C48.6140935,17.3853534 48.8688024,17.167632 48.915457,16.8719427 L49.6322986,12.3275324 C49.6987078,11.9055394 50.0626978,11.5945088 50.4901548,11.5945088 L52.4681418,11.5945088 C56.5857255,11.5945088 58.9621679,9.60181099 59.5833886,5.65214178 C59.8628959,3.92487078 59.5945269,2.5674741 58.7858472,1.61735948 C57.8966778,0.572884867 56.3211392,0.020595274 54.2298784,0.020595274 L54.2298784,0.020595274 L54.2298784,0.020595274 Z" id="p2" fill="#009ADA" sketch:type="MSShapeGroup"></path>
            <path d="M44.2705923,5.80303368 L41.262001,5.80303368 C40.9742976,5.80303368 40.705088,5.94593967 40.5434782,6.1838361 L36.3931101,12.2964294 L34.6341056,6.42257315 C34.5241941,6.05522071 34.1858432,5.80303368 33.8020985,5.80303368 L30.8445752,5.80303368 C30.4875203,5.80303368 30.2361739,6.15441428 30.3513393,6.4923449 L33.6642363,16.2168869 L30.5482554,20.6135575 C30.303634,20.9586335 30.5503569,21.4358974 30.9734007,21.4358974 L33.97926,21.4358974 C34.2640211,21.4358974 34.5307089,21.2961438 34.6929492,21.0620302 L44.6988899,6.62117043 C44.9384676,6.27546405 44.6911141,5.80303368 44.2705923,5.80303368" id="y" fill="#233982" sketch:type="MSShapeGroup"></path>
            <path d="M24.1561548,11.6293947 C23.8671905,13.3396431 22.5093735,14.4879346 20.7776893,14.4879346 C19.9093253,14.4879346 19.2143398,14.2084274 18.7675485,13.6798854 C18.3247501,13.1557566 18.1580965,12.4088628 18.2984807,11.5772761 C18.5681106,9.88215892 19.9475736,8.69708999 21.6529884,8.69708999 C22.5030689,8.69708999 23.1932207,8.978909 23.6488386,9.51270485 C24.1071885,10.0500734 24.2875022,10.8018009 24.1561548,11.6293947 L24.1561548,11.6293947 L24.1561548,11.6293947 Z M28.3279588,5.80303368 L25.3344987,5.80303368 C25.0781086,5.80303368 24.8597566,5.98944193 24.8198271,6.2428899 L24.6882695,7.07994067 L24.4789542,6.77668577 C23.8306234,5.835818 22.3858019,5.52142484 20.9432921,5.52142484 C17.6362796,5.52142484 14.8111543,8.02732328 14.2613866,11.5423901 C13.9751543,13.2957204 14.3813856,14.9715032 15.375633,16.1412308 C16.2891805,17.2157576 17.5927773,17.6629693 19.1458291,17.6629693 C21.8112358,17.6629693 23.2896823,15.9506194 23.2896823,15.9506194 L23.1562333,16.7826265 C23.106006,17.098911 23.3506275,17.3853534 23.670905,17.3853534 L26.3665741,17.3853534 C26.793821,17.3853534 27.157811,17.0743227 27.2244304,16.6523298 L28.8426305,6.40513021 C28.8926476,6.08884565 28.6480262,5.80303368 28.3279588,5.80303368 L28.3279588,5.80303368 L28.3279588,5.80303368 Z" id="a1" fill="#233982" sketch:type="MSShapeGroup"></path>
            <path d="M10.3648869,5.87469683 C10.0233836,8.11874108 8.30935243,8.11874108 6.65206335,8.11874108 L5.70888386,8.11874108 L6.3704545,3.92928406 C6.41038411,3.67604626 6.62873605,3.48942786 6.8851262,3.48942786 L7.31741679,3.48942786 C8.44574359,3.48942786 9.51165407,3.48942786 10.0610015,4.13229462 C10.3896853,4.51708999 10.4892992,5.08703268 10.3648869,5.87469683 L10.3648869,5.87469683 L10.3648869,5.87469683 Z M9.64342179,0.020595274 L3.39212569,0.020595274 C2.96487883,0.020595274 2.60088889,0.331625943 2.53426949,0.753829059 L0.00651483157,16.7830468 C-0.0432921065,17.0991211 0.201119155,17.3853534 0.521186526,17.3853534 L3.50603017,17.3853534 C3.93327702,17.3853534 4.29726697,17.0743227 4.36388638,16.6521196 L5.04605228,12.3275324 C5.11267169,11.9055394 5.47645148,11.5945088 5.9039085,11.5945088 L7.88189542,11.5945088 C11.9994792,11.5945088 14.3759215,9.60181099 14.9971423,5.65214178 C15.2766496,3.92487078 15.0082806,2.5674741 14.1996008,1.61735948 C13.3104314,0.572884867 11.7348929,0.020595274 9.64342179,0.020595274 L9.64342179,0.020595274 L9.64342179,0.020595274 Z" id="p1" fill="#233982" sketch:type="MSShapeGroup"></path>
        </g>
    </g>
</svg>